<mxfile host="Electron" modified="2024-03-10T03:09:08.934Z" agent="Mozilla/5.0 (X11; Linux x86_64) AppleWebKit/537.36 (KHTML, like Gecko) draw.io/23.1.5 Chrome/120.0.6099.109 Electron/28.1.0 Safari/537.36" etag="6x_8u5CyHsWYXx7HJCLe" version="23.1.5" type="device">
  <diagram name="Página-1" id="dk9pQwNmrlmIR3P_Ncm8">
    <mxGraphModel dx="1434" dy="835" grid="1" gridSize="10" guides="1" tooltips="1" connect="1" arrows="1" fold="1" page="1" pageScale="1" pageWidth="827" pageHeight="1169" math="0" shadow="0">
      <root>
        <mxCell id="0" />
        <mxCell id="1" parent="0" />
        <mxCell id="xqY8SB8kQwFQY_lp4gup-26" style="edgeStyle=orthogonalEdgeStyle;rounded=0;orthogonalLoop=1;jettySize=auto;html=1;" parent="1" source="xqY8SB8kQwFQY_lp4gup-8" target="xqY8SB8kQwFQY_lp4gup-23" edge="1">
          <mxGeometry relative="1" as="geometry" />
        </mxCell>
        <mxCell id="xqY8SB8kQwFQY_lp4gup-8" value="" style="rounded=1;whiteSpace=wrap;html=1;" parent="1" vertex="1">
          <mxGeometry x="330" y="120" width="410" height="370" as="geometry" />
        </mxCell>
        <mxCell id="xqY8SB8kQwFQY_lp4gup-6" value="" style="rounded=1;whiteSpace=wrap;html=1;" parent="1" vertex="1">
          <mxGeometry x="31.39" y="110" width="257.5" height="380" as="geometry" />
        </mxCell>
        <mxCell id="xqY8SB8kQwFQY_lp4gup-12" value="" style="edgeStyle=orthogonalEdgeStyle;rounded=0;orthogonalLoop=1;jettySize=auto;html=1;" parent="1" source="xqY8SB8kQwFQY_lp4gup-2" target="xqY8SB8kQwFQY_lp4gup-9" edge="1">
          <mxGeometry relative="1" as="geometry" />
        </mxCell>
        <mxCell id="xqY8SB8kQwFQY_lp4gup-2" value="" style="image;aspect=fixed;perimeter=ellipsePerimeter;html=1;align=center;shadow=0;dashed=0;spacingTop=3;image=img/lib/active_directory/database.svg;" parent="1" vertex="1">
          <mxGeometry x="390" y="242.68" width="80" height="59.2" as="geometry" />
        </mxCell>
        <mxCell id="xqY8SB8kQwFQY_lp4gup-3" value="" style="shape=image;verticalLabelPosition=bottom;labelBackgroundColor=default;verticalAlign=top;aspect=fixed;imageAspect=0;image=https://upload.wikimedia.org/wikipedia/commons/thumb/c/c3/Python-logo-notext.svg/800px-Python-logo-notext.svg.png;" parent="1" vertex="1">
          <mxGeometry x="117.86999999999999" y="150" width="84.54" height="92.68" as="geometry" />
        </mxCell>
        <mxCell id="xqY8SB8kQwFQY_lp4gup-5" value="" style="shape=image;verticalLabelPosition=bottom;labelBackgroundColor=default;verticalAlign=top;aspect=fixed;imageAspect=0;image=https://www.gyanblog.com/static/5fbb6c92f37667a196720584b625703a/f3583/youtube_data_api.png;" parent="1" vertex="1">
          <mxGeometry x="80.14" y="350" width="160" height="90" as="geometry" />
        </mxCell>
        <mxCell id="xqY8SB8kQwFQY_lp4gup-7" value="" style="image;aspect=fixed;html=1;points=[];align=center;fontSize=12;image=img/lib/azure2/app_services/API_Management_Services.svg;" parent="1" vertex="1">
          <mxGeometry x="127.64" y="270" width="65" height="60" as="geometry" />
        </mxCell>
        <mxCell id="xqY8SB8kQwFQY_lp4gup-13" value="" style="edgeStyle=orthogonalEdgeStyle;rounded=0;orthogonalLoop=1;jettySize=auto;html=1;" parent="1" source="xqY8SB8kQwFQY_lp4gup-9" target="xqY8SB8kQwFQY_lp4gup-10" edge="1">
          <mxGeometry relative="1" as="geometry" />
        </mxCell>
        <mxCell id="xqY8SB8kQwFQY_lp4gup-9" value="" style="image;aspect=fixed;perimeter=ellipsePerimeter;html=1;align=center;shadow=0;dashed=0;spacingTop=3;image=img/lib/active_directory/database.svg;" parent="1" vertex="1">
          <mxGeometry x="520" y="242.68" width="80" height="59.2" as="geometry" />
        </mxCell>
        <mxCell id="xqY8SB8kQwFQY_lp4gup-10" value="" style="image;aspect=fixed;perimeter=ellipsePerimeter;html=1;align=center;shadow=0;dashed=0;spacingTop=3;image=img/lib/active_directory/database.svg;" parent="1" vertex="1">
          <mxGeometry x="640" y="242.68" width="80" height="59.2" as="geometry" />
        </mxCell>
        <mxCell id="xqY8SB8kQwFQY_lp4gup-11" style="edgeStyle=orthogonalEdgeStyle;rounded=0;orthogonalLoop=1;jettySize=auto;html=1;entryX=-0.005;entryY=0.526;entryDx=0;entryDy=0;entryPerimeter=0;" parent="1" source="xqY8SB8kQwFQY_lp4gup-6" target="xqY8SB8kQwFQY_lp4gup-8" edge="1">
          <mxGeometry relative="1" as="geometry" />
        </mxCell>
        <mxCell id="xqY8SB8kQwFQY_lp4gup-15" value="Obtenção dos dados" style="text;strokeColor=none;align=center;fillColor=none;html=1;verticalAlign=middle;whiteSpace=wrap;rounded=0;fontSize=18;" parent="1" vertex="1">
          <mxGeometry x="67.64" y="510" width="182.36" height="30" as="geometry" />
        </mxCell>
        <mxCell id="xqY8SB8kQwFQY_lp4gup-16" value="Datalake" style="text;strokeColor=none;align=center;fillColor=none;html=1;verticalAlign=middle;whiteSpace=wrap;rounded=0;fontSize=18;" parent="1" vertex="1">
          <mxGeometry x="440" y="510" width="182.36" height="30" as="geometry" />
        </mxCell>
        <mxCell id="xqY8SB8kQwFQY_lp4gup-17" value="Bronze" style="text;strokeColor=none;align=center;fillColor=none;html=1;verticalAlign=middle;whiteSpace=wrap;rounded=0;fontSize=18;" parent="1" vertex="1">
          <mxGeometry x="380" y="301.88" width="90" height="30" as="geometry" />
        </mxCell>
        <mxCell id="xqY8SB8kQwFQY_lp4gup-18" value="Prata" style="text;strokeColor=none;align=center;fillColor=none;html=1;verticalAlign=middle;whiteSpace=wrap;rounded=0;fontSize=18;" parent="1" vertex="1">
          <mxGeometry x="515" y="301.88" width="90" height="30" as="geometry" />
        </mxCell>
        <mxCell id="xqY8SB8kQwFQY_lp4gup-19" value="ouro" style="text;strokeColor=none;align=center;fillColor=none;html=1;verticalAlign=middle;whiteSpace=wrap;rounded=0;fontSize=18;" parent="1" vertex="1">
          <mxGeometry x="635" y="301.88" width="90" height="30" as="geometry" />
        </mxCell>
        <mxCell id="xqY8SB8kQwFQY_lp4gup-20" value="" style="shape=image;aspect=fixed;image=data:image/jpg,/9j/4QCARXhpZgAATU0AKgAAAAgABQESAAMAAAABAAEAAAEaAAUAAAABAAAASgEbAAUAAAABAAAAUgEoAAMAAAABAAIAAIdpAAQAAAABAAAAWgAAAAAAAABIAAAAAQAAAEgAAAABAAKgAgAEAAAAAQAAAyCgAwAEAAAAAQAAAcMAAAAA/+EA+mh0dHA6Ly9ucy5hZG9iZS5jb20veGFwLzEuMC8APD94cGFja2V0IGJlZ2luPSIiIGlkPSJXNU0wTXBDZWhpSHpyZVN6TlRjemtjOWQiPz4KPHg6eG1wbWV0YSB4bWxuczp4PSJhZG9iZTpuczptZXRhLyIgeDp4bXB0az0iR28gWE1QIFNESyAxLjAiPjxyZGY6UkRGIHhtbG5zOnJkZj0iaHR0cDovL3d3dy53My5vcmcvMTk5OS8wMi8yMi1yZGYtc3ludGF4LW5zIyI+PC9yZGY6UkRGPjwveDp4bXBtZXRhPgo8P3hwYWNrZXQgZW5kPSJ3Ij8+/+0AJFBob3Rvc2hvcCAzLjAAOEJJTQQEAAAAAAAIHAFaAAMbJUf/2wBDAAYGBgYHBgcICAcKCwoLCg8ODAwODxYQERAREBYiFRkVFRkVIh4kHhweJB42KiYmKjY+NDI0PkxERExfWl98fKf/2wBDAQYGBgYHBgcICAcKCwoLCg8ODAwODxYQERAREBYiFRkVFRkVIh4kHhweJB42KiYmKjY+NDI0PkxERExfWl98fKf/wAARCAHDAyADASIAAhEBAxEB/8QAHQABAAEEAwEAAAAAAAAAAAAAAAcCBQYIAQMECf/EAEcQAAIBAwIDBAUGCwgCAgMAAAABAgMEBQYREiExB0FRYRMicYGRFDJCUnKxCBUjMzVUYnOSodEWFyRDU4KTwTRVROFFovD/xAAbAQEAAgMBAQAAAAAAAAAAAAAAAQIFBgcDBP/EAD0RAQACAQIDBAYHBgYDAQAAAAABAgMEEQUhMQYSQXETIlFhgZEUMjNScqGxFSNCVGJzFjQ1ktHhZKLBgv/aAAwDAQACEQMRAD8A2pAAAAAAAAAAAAAAAAAAAAAAAAAAAAAAAAAAAAAAAAAAAAAAAAAAAAAAAAAAAAAAAAAAAAAAAAAAAAAAAAAAAAAAAAAAAAAAAAAAAAAAAAAAAAAAAAAAAAAAAAAAAAAAAAAAAAAAAAAAAAAAAAAAAAAAAAAAAAAAAAAAAAAAAAAAAAAAAAAAAAAAAAAAAAAAAAAAAAAAAAAAAAAAAAAAAAAAAAAAAAAAAAAAAAAAAAAAAAAAAAAAAAAAAAAAAAAAAAAAAAAAAAAAAAAAAAAAAAAAAAAAAAAAAAAAAAAAAAAAAAAAAAAAAAAAAAAAAAAAAAAAAAAAAAAAAAAAAAAAAAAAAAAAAAAAAAAAAAAAAAAAAAAAAAAAAAAAAAAAAAAAAAAAAAAAAAAAAAAAAAAAAAAAAAAAAAAAAAAAAAAAAAAAAAAAAAAAAAAAAAAAAAAAAAAAAAAAAAAAAAAAAAAAAAAAAAAAAAAAAAAAAAAAAAAAAAAAAAAAAAAAAAAAAAAAAAAAAAAAAAAAAAAAAAAAAAAAAAAAAAAAAAAAAAAAAAAAAAAAAAAAAAAAAAAAAAAAAAAAAAAAAAAAAAAAAAAAAAAAAAAAAAAAAAAAAAAAAAAAAAAAAAAAAAAAAAI/1NrH5BVlaWUYzrr58n82H/2ZNn8isdirm4T2moNQ+0+hr85zqSlUm25ze8m/M13jvE8mmrTDhtte0bzbxiGxcC4Zj1M3z5q96lJ2rXwmff7oXt6m1B6Tj/GE9/DuM207raVerC1yKjGcuUKq6N+fmReUtdNns1zT8H4ms6bimtwZYvGa9o/iraZmJj4tm1HDNFqMU0nDSs7crViImPk2cBhejc68jY+grz/xFHk/GUe5maHQdNqMepwUzY59W0b+Xuc+1OnyabPkw5I9as7efvAAe7wAAAAAAAAAAAAAAAAAAAAAAAAAAAAAAAAAAAAAAAAAAAAAAAAAAAAAAAAAAAAAAAAAAAAAAAAAAAAAAAAAAAAAAAAAAAAAAAAAAAAAAAAAAAAAAAAAAAAAAAAAABG/aJdcNraWyfz58T9iIs2M21/c+ly9vSX+VSe/+7mYUc641l9JxLPz3isxWPhDonBsXo+G6eNtptE2n4y4Ww6FyxmLr5L5XGi/Wo0uNL63kWxd+/Jp7Nd62MdOO8UpeazFbb92fCdp2lkYvS1r1i0Tau3ej2b84e/F5GrjL+jd09/Ufrx+tF9TYOzu6V5bUrilJOFSKkvea3Mz7Q+c+TV3jq8/ydR70W30fh7zPcA4h6DN9HyT+7yT6vut/wBsFx/h/p8Hp6R+8xxz99f+kugA3ho4AAAPPWuragt6taEPtSS+8x691hg7RtO59I/CC4jxy6nT4Y3yZaVj3zs98Wm1GaYjFhvbyiZZSCNKvaNQUmqVjOcfFy2Lni9c4y9qwo1oyoTk9lxdPifHj4vw7JkildTXeZ2jfeI+cvrycH4ljpN7aa20RvO20z8oZwDhNNJrmmcmSY0AAAAAAAAAAAAAAAAAAAAAAAAAAAAAAAAAAAAAAAAAAAAAAAAAAAAAAAAAAAAAAAAAAAAAAAAAAAAAAAAAAAAAAAAAAAAAAAAAAAAAAAAAAAAAADpr1Y0aNSpLpGLb9xEzERMz0hMRMzER4oD1Hc/Kc7fVE90pKK9xZkVVZ+kr15/Wqyfu3KH0ZyzPknJmy3n+K9p+cup4ccY8OLHHStIr8oSb2dW28L+5f1/R/DmWXWmDdhffLKUfyFxL1kvoz/oZvoa2VDB05bc6snNmRZOwo5CyrW1WKanFpeT7mblj4bXUcEwYtoi/c79Z/qnn+bTsnE50/G8+XffHNu5eP6Y5fk11OE5RlGcHtOLUovwaPReWdexu61pXXr05dfFeJ0GlWralprMTFonaY8YmG51tW1YtWYmsxvE+ExKcdO6ht7/FQrV6kYVKfq1eJ7c13+8rvNXYK0+ddcb8ILiIJ57NKUkn1SfJnCjFdImfjtHq64cdIx070V2m9ue8x47MBPZzSWzXvOS8Vm28Ury2ifDdJt12iR3krSzcl3Sm9v5GMXer8/dRlH5RGnB90Vs/iY4DH5uLcQzb97UWiJ8K+rH5Mhh4Xw/Dt3NPWZjxt60/mqrVriu961epU+1Lc64xjHokhuVGOmZtO8zMz7Z5sjyrG0RER7IcdSiovUlv3Lf2FfuLhisXWyt9StKa5N71Jdyj3l8eO+W9cdK72tMREe9S2SmOtsl7bVrG8z7oTfpyrVq4aylV+d6NL2pF8Oi3oQt6FKjD5sIKK9x3nUsNLUxY62neYrETPk5fmvW+bLesbRa8zEe6QAHo8gAAAAAAAAAAAAAAAAAAAAAAAAAAAAAAAAAAAAAAAAAAAAAAAAAAAAAAAAAAAAAAAAAAAAAAAAAAAAAAAAAAAAAAAAAAAAAAAAAAAAAAOG0lu2ByC1Xmaxdl/wCRd04Pw33f8jDr7tCs4KUbS3nUl3SfKJ8eo4ho9PE+lz1iY8N95+UPt0/D9bqNvRYLzHt22j5ykYx7Ut7RtsPeN1IqUqbjFb822RZfayzt3uo1I28Xy2hz+8xqpUq1ZOdWrOcn1cmYHWdo8M48mPBitabRMd63KObO6Ps5mrkx5M+Wsd20T3a85nb3uuHzY+w4nyj7Wl8eR2Hosbf5Vf2lDunUW/uNRpWbWpWOszEfNts3isWtPSImZ+Cf8PbfJcZaUfq01/UuZRCPDCMfBJFZ1XHSKUpWOlaxEfByvJeb5L3nra0zPxR7rnBfKbb8YUIb1qS9ZL6Uf/oiVNNJo2alGM4uMlumtmiPZ9ntlO7r1ZXVWNOc3KNOPRb93sNZ4xwXLnz1zaasb25XiZ25+1s3B+M4cGnth1NpiKfUnbfl7ETOSXVnot7W7uXtQtqlR+SJws9JYO1SatIzkvpS5syCFGlTSUKcY7eC2Pnw9mcttpzaiK+6sbz85fRm7TYa7xhwWt77TtHyhCNnozPXWzlThQj+31Mko6AtKVN1b2+lwx5yS2UdiTm0lu3yIe1dqd31SVhZz/w8d1VmvpvwXkfTqeHcJ4dg9JlrOS/StbT9afKHz6biPFuJZ/R4rxipHO1qx9WPOWM5atjp3LpY+gqdvTeylvu5vxLaUpJLZFdOnVrVYUqUHKpN7RijUsl7Zck27sRNp5VrHLyiG2UpXHjivemYrHO1p3mfbMy7LW1uLy5p21vDiqTey8vNk7YDBW+HtI04+tVlzqT72/6Hj0vpyliLbjmuK5qpekl4eSMrN24NwmNLSM2WN81o5R92PZ5tJ4zxadVecOG37ms85+/P/AADPsAAAAAAAAAAAAAAAAAAAAAAAAAAAAAAAAAAAAAAAAAAAAAAAAAAAAAAAAAAAAAAAAAAAAAAAAAAAAAAAAAAAAAAAAAAAAAAAAAAAAAAB4r7IWdhQlWua0acF3s9c5qEJSl0S3Zr3nMtcZa/q1asn6OEnGnDfkku8xXFOJV0OKsxXvXvMxWPDl4yyvCuGzr8tom3dx0iJtMdefhDNch2hPicLC14kn8+fR+ww691Hm71SjVvJRg+sI8kWYeBpWo4nrtRM9/PaIn+Gvqx+TdNPw3Q6eI9HgrvH8VvWn81LW73k3J+LbZUcxhUm9oQnJ+EVuXqy03m73Z07Rxg/py5fyPkx4M2WdseO9590bvryZsWKu+TJWse+dllKHKO+2+78OpJll2ePdO9vN/2aa2MwstL4WzjHgtISkvpzW8jM6fs9r8vO/dxR/VO8/KGHz9oNBi3ik2yz/TG0fOUKWeKyl7LhtrOpPxb9VfzM709oy+tr63vbupBKm91TXN7knxjGK2jFJeRUZ3S9ntLhvTJe9slqzEx4RvHuYLVdodVnpelMdMdbRMT4ztPvAAZ9gAAAACP9XaoVnCVlZyTuJpqc0/za/qfNqtVh0uG2XLO0R0jxmfZD6dJpc2rz1xYo3mes+ER7ZW7WOp23PG2VTn0rVF3L6qI0SSWyC35tttt7tvvYb2X/wDcznWt1uXWZ7ZcnLwrXwrHsdF0WjxaPBXFjj8VvG0+1zzbiopyk3tFLvbJh0lphY+kru6indTXJP6C8PaW7R2mHT4MjeQ9drelTf0V4+0ks2bgnCO5FdTnr6086Vnw98+9rPHOLd+baXBb1Y5ZLR4+6PcAA2hq4AAAAAAAAAAAAAAAAAAAAAAAAAAAAAAAAAAAAAAAAAAAAAAAAAAAAAAAAAAAAAAAABvsi3Vsvi6EuGrf28H4SqRX/YFxB4bfJ465e1C8oVH4Rmn9x7gAAAAAAAAAAAAAAAAAAAAAAAAAAAAAAAAAAA6Lin6WhVp77cUWvia3VqNShcXFGpFqUKkk0+XebMGB6q0n+MW7y02jcpetHun7fMwHHuH5dVhpfFG98e/q+2J9jP8AAeIYtLmyY8s7Uybet7Jj2ohBXXoV7ao6VxSnTmnttJbL3FBo0xNZmJiYmOsTylu8TExExMTE9Jjo9Vjf3dhXVa2moy5b7rdPYz7H9oTXDC/tvbUh0+BG4Ps0vENXpOWHJMV351nnD5NVoNJqvtsUTP3o5T82wdjnMXfxUqF1Bt/Rb2fwZdzWOK4ZKcG4yXSSezMkx+rs1YcMXW9NT+rPnL4mxaXtLSdo1OKa/wBVecfJr2p7NWjedNm3/pvyn5p4BY8HlLjJWvpq1lO358oy7/Mvhs2LJTLjreu/dtG8bxt+rWcuK+LJbHeI71Z2naYn9AAHo8wAAdVaM50qkYT4ZOLSl4NmuV9b3Ntf3VK439Kqj3b+kn0ZskRrr3DOpTp5KjH1qfq1Ul1i+/3GA7QaO2fSxlpvNsU77e2J6/Jn+z2srg1VsN9orliIifZaOiLvEuuCqWdPMWcruHFS49ufRPubLStmk13nDW6f8vaaRiv6PJTJERPdtE7T0nZu2SkXx3pMzEWrMbx1jds3FxaW3TbkVGG6NzP4wxsaNSX5eguGXPm13MzI6fps9NRgx5aTytXfy9zmOp099NnyYbxzrbbz94AD3eAAAAAAAAAAAAAAAAAAAAAAAAAAAAAAHjv6s6VlcVIPaUabafmj2Hgyn6Ou/wB1L7imWZjHeY+7K+KInLjifvR+qFv7Yaj3f+Lj1f0Tn+1+o/1uP8JjS6y+0/vKjms8Q1381l/3S6X9B0X8ri/2wyL+2Go/1uP8I/thqP8AW4/wmOgj9oa7+ay/7pR9B0X8ri/2wySOsdRxf/lQftge+117maT/AC9OnWXkuEwwF68T4hSYmNVk+M7/AKqX4doLxMTpcXwjb9Ew43XeLupRp3ClQqPx5x+JmsKkKsIzhJSi1umuaZrO0mua3XmZJp/Ul1iK8YznKpaya44N7uPmjOaDtFfv1x6uI2nl6SOW3nDCa/s7jmlr6SZi0c/RzzifKU8A89tcUrmhTrUpKUJxTi0eg26JiYiYneJjlLUZiYmYmNpidpgABKAAAAAAAAAAAADqrVqdGlOrVmoQhFylJvZJLq2BVOcKcJTnJRjFbtvkkkQJrLtyxmNqVbLB0vltzHeMqr5U4vyfeRh2m9qV5qK6rYvE1p0cZTltKpF7TrSXXn9X7yG4xjFbJbIiZWiGYZjX+s81Ju8y9SEX0hR/JpfAxKpUuar4qt3cTfjKbZSCq2zso3F5bvehe3NN+MKjRImnO1jWWBqUoyuvltrGW8qNXnJryk+ZG4CNm++idfYTV9n6SzqOFxBL01vPlKD8vFeZnJ84MRl8jhMlQyOPrOnXpST2T2U0voy8jezQ2srHVuDo39D1aq9WvSfWE1193gWiVZjZmYAJQAAAAAAAAAAAAAAAAAAAAAAAAAAAAAAAA8F7jLG+puFzQjNbdWua95gGT7PobSnjqzi+6nN7r4knA+LVcP0mqiYy4omfvRymPi+3S8Q1mlmPRZZiPuzzj5Nc7/FZLHycbq2lFJ7caW8fiW9NNbpmy9SlTqxcakIyj4SW6MUu9E4S5uI1vROHPeUYvlI1vU9mssTvp8sWjf6t+Ux8WyabtLitG2oxTWdvrU5xPwRFjsXf5OqqdpRclvs5vlGPvJYwWjLHH8Na4Sr3G3V/NXsR68xndOaRxjq3dalb0oxfBBfPnt3Jd7NWtbdsmaz7qWmK47KxfLj6Vai8/Aymg4HptLtfLtkye2Y5R5Qxev45qdVvTFvixz4R9afOU5647XNP6ZhO2tpxu7/baNGm94xe+3rtdPYSRhbm4u8VZXNwlGrVpRnJLonLnsfOqxt3cZKyoc5Tr3MItt7yk2+9n0fsqSpWdtTS24KUI7exGchg5h6gASgB5ql3bUq9GhOtCNWrv6ODfOW3N7IsWY1PZ4i6pUbqnU4ai3jKK3XvPLNmxYad/JeK135zPR64cGXPfuYqTa22+0deTJjpuKFO4o1KNRbwnFxkvJlrtNQ4e7UfRXlPd/Rb2ZeU01ye4pkxZqz3b1tExz2nfqi+PNhvHfpalonxjbo11y2NqYzI17SXRPeD7nF8+R4CX9cYb5ZYK7pRXpqHNvxh3oh5PdJnPOKaKdHq70iPUt61J90+HwdE4ZrI1mkpkmfXj1bx748fivGCyssVlKNxu/RyahVXjFmwNOpCpCM4NOMlumvA1na3TXkS3oTMu5tJWNae9Sh83zh3GW7O67uZLaW88r86efjHxYntFoe/irqqR61PVv76+E/BIAANyaaAAAAAAAAAAAAAAAAAAAAAAAAAAAAAB4Mp+jrv91L7j3nhyn6Ou/3UvuPPL9lk/DL0w/a4/wAcfq1wXWX2mVbIpXWX2mVHKvb5y6pL12Fhc5C4VvbpOo1vz6F9/sXqD/Sh8SvRX6fp/YZOBs3COEaXWaWcuWb97vzHKduUNb4txfU6PUxjx1pNZpE843nmgOtpXP0U38jc0vqlhnGdOcqdSEozXWLNmjE9UYC3yNjUqRgo16cXKEl1e3d7z21nZylMVr6fJabRG/dtz38peGj7R2vlrTUY6xW07d6vh5whE45HC4ukltJPZrwaKjU219Eldn+Uk/TY6b34Vx0/JeBKBAOl7h2+espL6cuB+wlDL6utMVefJq9vVcuHiTXRo3fg3EMdeG758ndjHfud6fnDSuM8Py34ltgx96clO/MR7Y5TLLgR/wD3h4z9Vrj+8PGfq1f+RkP2vw3+ap+bHfsjif8AK3/JIALXicrQylnG5opqLbWz6pouh99L0yUrekxNbRvEx4w+DJS+O9qXrMWrO0xPhIAC6gCy5rN2uHt4Vq8ZSUpcKjHq2Yz/AHh4v9Wrnx5+IaLBfuZc9a2232n3vsw8P1ufHGTFgtasztvHuSACP/7w8Z+q1/5F7wWpLbNVK8aNCpBU0m5S6PfuRXFxLQ5slcePPW1p6RC2Xhuuw47ZMmntWteszsyU1+7ddXVsfjLfCWlThrXu7qyT5xpx7v8AcbAmiPatk55HXmTk36tGMaUV4cPI+2ej4ojmjyMVGKilskctqKbb2SB78RC1qZrFU7ppW8rqCq79OHcqukTRvZJqHU9CF5Wn8isp/MnJflJrxS8CRrr8HW1jbydrqG6dbbkqkYqLfuNkLWFGnbUYUUlTVOKgl0225HeW2hTeXz01TpHO6UvVb5OhtCb2pXEPzdT2PxMbPoZqnTdhqTD3OOvKalGcXwSa5wl3NGsel+wzN3uRrRzk3bWVCrKK4X69dLo15MjZMSi7TWls5qi+Vri7aUkmvS12tqdNPvbNy+z/ALPMdo2zqRpVp1rqts69WXLd+CXgjMMPhcZhbGlZ4+2hRowSSUV182+9l1J2RM7gAJQAdDGsxrDTOFSeRy1vQ3e2zlu/gtwMlBDN9256JtqjjRq1bhL6VOPL+Z4I9v2k29naXiXjwojeE7SnUEX4ztg0HfqKllYUKjaShVTT5+wke2u7W6pRq29eFWDW6lCSa/kSh6QAAAAAAAACx5bUuAw1J1cjkqFCKezcpc/guYF8BD+Q7b9DWsuGjdTufOlHl/MtK7f9J7/+JebeOyI3TtKdgRRje2fQl7yq5FW0u5VU19xJNhk8fkaMK1ndU61OS3UoS3JQ9wAAAAAAcNpJtvZIDkFmvNQ4Oye1zkrem/BzW/8AIt39uNI/+6tf4gMqBjdvrDTN1Xp0KGWt51ZvaMFLm/YZBVqRpUp1JdIxcn7EBoR2k5Grktb5idSrKcKVTghFveMXHlyRhRcMxXVznczXT3VS+rNPy3LeVnqvHRlOhbf5TrfTlLbdfLIyl7EfQc0h7GbJXevraUk2qNvKovambvEx0VnqGM6q1Vi9L4mtf31VJJP0dP6VSXdFHq1DqHG6exdfIX9aMKVOL2W/OT7kvM0V1lrDJauy0r27bjQg2ra37oR8X5iZ2IjdmOmtdZLM9qOKy+Rk4wnKdKnRT9WnGSaS9vM2J7RqDdCwrJcoTkn7zSWwuHa5LH3G/wCbuqcvgze7VXDf6VVxHnvGFRe/mY7iuP0vDtTX+jf5c2S4VkjFxLS29t+7P/65Ia4UnuuT8uRcLPKZSylxW95Uj5N8X3lvjJSSaaZWc6pkvSYtS9qz7YnZ0O9K2ia3rFo8YtG7NLXXmVpR4Li3p1497fJmH3EqErirOhGUacpcSi+7c6we+bWanPSlM2SbxWfV36x8Xhh0umwXvbDiik2+tEdJ+AevG39THZC3u4N+pL1l4xfU8hTJbxa8meFL2x3res7WrMTE++Hvalb1tS0b1tG0x7pbKWtxTurelXpveFSKlF+TPQYjompOpgaHF9GTivYjLjqGlzen02HLtt36RPzhzDVYYw6nNiid4peYj4AAPd4AAAAAAAAAAAAAAAAAAAAAAAAAAAHgyn6Ou/3UvuPeeDKfo67/AHUvuPPL9lk/DL0w/a4/xx+rXFdZfaZWULrL7TKzlXt85dUllWiv09T+wycCD9Ffp6n9hk4G9dnP9Pn+5Zo3aP8Az9f7VQpkk4tPwKjy3lxC2ta1ab2UIOT9yM9aYiJmekRzYGsTa0REc5naGvGQioZG8iuirS+88xVXrenr1q3+pOUl7yk5VkmJyZJjpN5mPKXVKRMUpE9YrET8ntxUmstj2nt+WRIuv8aqlrb30Y+tS9WT/ZZgOCpelzePhtv+VTJ2yllC9x9zbS6VKbRsnB9L9J4Zrsc/xWju+cRvDXeL6r6NxPQZIn6tZ734ZnaWunJj3HM6cqNSpSnylCTiwaxMTEzExzjq2TeJiJjp4JI7PL7aV5ZSlyW04Lx36kpGv2nL35DmrSr9GUuB/wC7kbAm+dntR6XQdyeuK01+E84aN2h0/otd6SI5Zaxb4xykAKZSUYuT5JLdmdYFEGv7302St7aEvVpQbmv2n0MF5b9D25S8le5K7uG/nVGl7uR4zmOvz/SNZny78pvO3lHKHTdFg+j6PBi251pG/nPOVEnwxb8ETbonHq0wtKo161d8b9j6EO2FrK8vrW2j1nNfBdTYyhRhRo06UFtGEUkvYZzs1pu9mzaiY5Vju1856sJ2l1PdwYdPE87271vKOjuNCu0+wqWOvMvTn/mONSL8pG+prf29aSrXFva6gtKXFK3ThcpLdyg+kvYjcZadEtXziUVKLTOU00mnun0YKrtpux/tOV7So6fzFba6pR2tq8nyqxXSL370bFHzPTlGUJwnKE4SUoTT2cWu8207Ku1WGYhTw2ZqRhfwilSqt7Ksl/2WiVJhPgAJQAAAYlqvWuB0rZu4yNylJ/m6MXvOb8EjH+0ftGstH2ChCKrZCumreiu79uXkjSnJ5PJZi+q3+SuZV7ibbcpPdRXhFeBEymI3STqvth1TnpzpWVSWPtOaUYP8pJftMimpxVajqVpyqTb3cpty3+IOJTjHbiklv0XiQtEbHDFdEvgc7LwO2nbX1Vb0bC7qLxjSk18RUtr2it61hdU14zpSiviyEuhwhLrFfAv2C1PqHT1eNXF5GrSSknKk5Nwnt3PfuLFGUZfNafsOQNzOzztbx+p3Cwv4xtcko/Mb2hU84b/cTIfNCMqlOpTq0qkqdWnJSp1IvZxa57o3T7JtfvVOIlbXm0chZpQq8/zi7ppfeWiVJhLgAJQFg1DqXDadsJ3mSu4UqaXJN+tJ9ySLRrnW+N0hiZ3dy+OtPeNvQT9apP8Ap4mj+odRZfUuRnf5Su5zbfBST9SmvBIiZTEbpO1d22agy850MMpWFru0qn+bJf0IauKte7qyq3VepXqSe8pTk3v7ig4lKMVvJpe3kVW2FGK+ivgc8vA7KdC7rfmbK5qrxhSlJfyK52eRprepjbyC8XRlt9wS87hB9Yp+4ueJzOZwldV8XkK1tNfVk2n5NPuLYpRbaT5rqu9HIG2fZ72z2+Yq0cZm4Rt72XKFZcqdT+jJ8TTSafI+Z8lvtzaae6a5NNd6Ns+xjtDqZe3lgslPe8toL0NVv87T8Pau8tEqTCfgDoubija29WvWmo06cHKcn0SXMlCxao1ViNL4ypf5GsowXKEF86pLujFGn+q+1jVWoqtSFC4lYWT3SpU/nTj+2yya91dc6s1BcXc5y+SUZuFrSb5RS5cXvMPKzK0QonF1ZOdSdScn1bk3v/Mp9DT8H8WdjaS3bSXizr9LS/1I/EhZIvZLj6dzr7FJp7U1Ob5+CN09TXKtdP5avvtwWlV//qzVnsBs43Oq8ncpxat7WLX+97E99rF+7HQuWqp7cUFT/j5Fo5QpPVopGfHxVPrycn7yoopR4acI+COwqunv8H2ylVzuXvOHlSpKnv8Aa5m0GZzOOwuPr39/XjSoUo7yk/uXmzXnsJubPEaY1Hlb6tGlQ+Uxk6ku5Ri+RFHaD2gX2ssi9nKljKM/8PQ3+c19OXn4FvBTbeXm11rnIayynp6vFSsqTatrfflt9aXmYSDKtG6Oymr8srKzThRg07m5a9WnHwXmyFuUQ50dozJ6wysLO0i4W8JJ3Fzt6sEu5ebN8bHFW9ribbHS3q0qVGNLefNyUVtzPJpvTWK03i6OPx1BQpQW8n9Kcu+Un4sv5PdiYmJ5xPVXed4mJ22YXe6Gwlxu6UJUH+w+RiN7oHJ0d5W1eFWP1X1/mTEDF5+C8PzbzOGKz7aeqymDjXEcG0Rmm8ey/rNcrvFZSyk1cWdSPmuf3Fv4o9N9n4PkbNyjGS2kk15lhvNMYS7TdSzgpP6UVszDZ+zNo3nBqImPu2j/AOwzODtNSdoz6eY99J3/AClAm68T0WVjc5G4hbW0HKU3s33RXe9yXY6DwkZuTVVr6rlyMmscZYY+HBa28KafXZc37Tw03ZvU2vHp70rSJ5xWd5l7ajtJpq0n0GO9r7cu9G0RPvcYqwhj7C3tY7P0cEm/F97LiAbnSlaUrWsbRERER5NNve172vad7WmZmffIACyoAAAAAAAAAAAAAAAAAAAAAAAAAAB4Mp+jrv8AdS+4954cp+jrv91L7jzy/ZZPwy9MP2uP8cfq1wXWX2n95WULrL7TKzlX/MuqSybR1SlSzcJ1KkYR4Hzk9l/Mmb8ZY79dof8AJH+prjKKktmtyj0NP6qM3w/jN9FgnFGCt470zvNtuvwYbiHBsetzxltntSe7EbRXfo2BvNS4a0TdS7g/KL4vuIv1Jqqtlk7ehF07ZPnv1mYgoRXRFZXW8c1eqx2x7Vx0nrFeczHs3NFwTR6TJGT1sl46TbpHviHGxyDmnSq1qtOjSg5VJtKKRh4iZmIiN5npDMTMbbzyiOssy0HZSr5epcOL4KMNt/2iZywacw8cTjadF/nJetUfjIv50bhOknSaLHjt9efWt5z4Od8W1cavW5L1n1K+rX3xHig7WeP+R5qpVitoXC4/eYr3Eya6x7usSq8V61vLj93Qhpc0jTuNab0HEMkRHq39ePj1/NuHBtT9I4fimZ9anqW+HT8hycXGS6xakvajYbCXivcXa11LdumlJ+a6mvRKvZ7fcdlXs31pT4l7JH1dnNR6PWWxTPLJTl51fJ2iwek0VcsRzx2/K3JIxjmqb5WeFup77SnHgj7ZGRkW9od9u7SyT5N+kkvZ0Np4pqPo+gz33593aPOeTV+Faf6Rr8FJjlFu9byrzRpHot+veVnHU4k9k2c28HSOrOtBY/0+RrXco+rRjtF/tPqTEYpo3H/IsLSbW0qz9JL3mVnRuD6b6PoMNZja1o71vO3NzvjGp+ka/NMT6tZ7lfKA6Lm2oXVvWt68FOlVg4Ti+jjJbNHeDJsW0U7SdBXOkMtKdKnKWLuJt0KnXgb+g/8Aojo+jObwmNzuNr47IUFVt6q2lHvXmn3PzNHNdaFyejck6VVOpY1ZP5NcJbrb6s/BlZhaJYScxlOE4VKc3CpBqUJxezi13nAIWba9lXapDM06eHzFSNO/pxSp1ZPZVl/Uns+aMZVIVKdWnNwqU5KVOaezjJdDdHsn7QP7U4qVtezisla8qsVy44d017e8tEqTCXSwan1DZ6cwt3k7p+pRjyjvtxSfSK9pfzUvt71NUusvbafpTfobeMatxHulKXOPwJI6oWzWZvs7lbrJ3k5Sq1pNxTfzId0V7C2AuOIxN7mspZ4yzjvWuKiin9Vd7fkUX6LhpjS2Z1Tko2WNotpP8rcNfk6S834+RtfpTsZ0thKcKl3SV9dbevOqt4b+MY9xnOktK4zS+Ho4+xpKKSTqy6ynPbm2zJy2yky81tZ2tpTVO3oU6UF9GEUl/I4urGzvKbp3NvTqwfWM4qS/meoEoQTrfsUw+UpVbvCRjZXqW6hHlSn5NdzfiamXVpd2V3cWd3RlSuKM3CpCS22a/wCvA+lJrD2+6WhD5HqG3ppST9Fc7fS3+a/cRMJiWtplehc/V0/q3F30ZuNKVRUrheNORih11t1TbXVNNe57lV30xpzjUpwnF7xlFNPyZ48nkbXF2FzfXVRQo0KbnOTfgWTRGReS0nhrtvd1LaPP7PL/AKIZ7ftTzo2tlp+hNp3P5S4XjTT5L4l3mgTV+qrzVeduMlXclS4nG1pN8qdNPl7zGh0SR2UaFxc3FC2t4cVatNQpx8ZS5FHouGFwmVzuRpWGNtpVa02uJperTT75PuNq9IdiGAxUKdxl/wDH3e3rKX5pb+EfIzLs90RZaSwtOjCmvldaMZXVTq5T8N/BGflohSZeKyxthY01TtLWlRj4Qionpq0aVaDhVpxnF9YyW6OwEoRNrHsi01n7ec7W3jZXsYv0dWkuGLl+2l1NOsxiMhhMpdYy/puFehLZvblNd0o+R9HjXXt+03Cvi7POUaW1a2qcFafjSfRfEiYTEtWS44fK18PmMdkqE3GVCvFy2e28N/WXwLd1KakeKnNeKZVd9JcdfUshYWt5S+ZXpRqR9kluR/2vZOeP0Lk3DrXSo+6fUp7HsjO/0HjKk5bum5Ul7IPYw38IO+9HpyxtFLZ1bmMtvFRLeCkdWptNcNOC8IoqlJRi5PuRUU+jdWVOmus6kEviiq7ZLs07H8XkcTbZnN8dV3EeOlb/ADVCP7XiyVv7pNCf+opmaYK2VrhsdQS+ZbwX8i6ltoU3li2ntG6e07VuKmLso0ZVoqNRrvS5ojft+vVS0V8m3517mnt/te5OJrJ+EReergbNdJTqTfuQkjq1rODk4KrrrVzV/UwlthlPgs6U3OUI8vSS8ZFqBxJNxaXUDKdIaQyursrCxsouNFNfKLnb1acf6+RvNpjTOL01iaGOsKKjCCXFLb1py75SfeyO+xTL4C70urXH0I0Li3ltdU9/WlP6/miZi0QpMgAJQAAAAAAAAAAAAAAAAAAAAAAAAAAAAAAAAAAAAAAAAHgyn6Ou/wB1L7j3ngyn6Ou/3UvuPPL9lk/DL0w/a4/xx+rXFdZfaZWULrL7TKzlXt83VJcczkvGAxlLKZGNrVm4xcW911M//u7xv6zVMjpeFazV4vSYa1mu8xzttzhjtVxTR6TJGPNe0W235V35Sif3lLlGPVkv0+z7Exfr1aki82uksFayUoWqbXfLmfdj7Oa+0x3rY6R4893xX7RcPrHqxkvPlt+qGcficlk5xjaW7kn/AJkuUfiS7p3SltiUq1Rqpctc5tco+wymnSpUo8NOEYx8IrZfyO02DQcE02ktGS0+kyR0tMbRHlDX+Icb1GrrOOsejxz1iJ5z5yAAzTCui4oxr0KtKSTU4tc/M1yvLWVnd3FtLrTm0bKEPa+x7o5GjeRjtCrHhl9pd5rnaPTek0tM0dcduf4ZbH2b1Pc1N8EzyyV3j8VWDGS6PvfkmepKT2hVi4teLfQxoQqzoVKdaPzqc1Je40/TZpwajFlj+C8T8PFt+fDGfBlxT/HSY+bZo1/1JefLM5eVU94xajHy4SYLrKRhp+d6pLd2/Euf0muhAfE57zl1m3J+1mz9pNTE49PirP1vXny8Gs9m9NNcmpy2j6v7uPPrLnn4nsxtnK+yNrbR+nUW/u5nkM97P7D0t7c3k47xpx4YeUjXuH6f6TrMOLwm0TPlHOWwa7URptHny78619XznlCWacI04RhFbJJJI7ADpvRzMAAAtOawmNzeOr2GQoRq0KsWpJrmvNPufmXYAaE690FkNGZHgnvUx1ae1tX8P2ZeZgp9Fs/gsfnsXc4++oxqUqsGua5xfc14NGgOoMJc4DN32KuHvKhUajL60e5lZhaJWcybRmdraf1TjMhTk1H0qp1VvylGfLn7DGSio2lGS6qSa9qIWfS1XFJ26rqXqOHHv5bbnzx1RkJ5LU2ZvJycnK6nFNvf1YvkbvULmdPs+jcS+dHEOT9qpmgcKjq8dV9ak3P4lpVhUbA/g/YWFfKZbL1Em6EVQp7r63PdGvxtT+DzWpvC5mktuON1Fv3oiOqZ6NhwAWUAAAIo7aI03oO+49uVSm17SVzXj8IDPQoYiww0HvUuqvpJbPpGn4kSmOsNVYfMj7EUVvzU/Ydh2Ubapd3Nta003OtVjCKXe2yq7e7svpTo6DwEJrZq25+9s1L7UcpPJ67y03JuNvL0MN+5Lmbu4qzVjh7O2itvRW8Y7eaR8/NSTlPU2dnL5zu5blp6Kx1Wcl/sRwscjrJ3dSClCyouSTW64prZMiA2F/B5q045TO021xulTaXkRHVM9G1YALKAAAGA9p9vG40Nm4SW/wCR3+DRnxH/AGo3Ct9C5ube35FL4tAaGU3xU4vxK29k/YU01tCKKa3KlU2+qyj0bp9hdOVPs+s1Jbb3NZr2Nka/hEVlLKacoKXSlWlKP3E39mdirLROGppfOoKb9suZrR233buNculvure3il/uXMt4KeKIi76etHe6jwtolv6W7jHb+ZaDOezC0nddoOAUVyoVvSy9iIWlvpShwUqcPqxS+BWAWUDTjt6vZVtZ2tpvyoWkZ7eHGbjmiPavffLe0DKT7qcI0v4CJ6Jjqj07KFP01xb0d9nVqKG/g2dZf9KWvyvVWDoNbqV5DdFV3GpdO3+m8tLH3i5+jjOnNLlOMlvy9hYTdrtT0JS1NgHO3htf2cOK3aXOSX0PYzSXacZShUg41IScZxfJxkuqJmERO6+6Z1HfaZzVtlLST9RpVqe+yqU+9M36wGcsM9ibTJWVTio14KS8U+9PzR86CVeynXs9L5j5FdzlLHXklF7vlRqPpJeTEImG7YKYTjOMZRknFrdNdGmVFlQAAAAAAAAAAAAAAAAAAAAAAAAAAAAAAAAAAAAAAAA8GU/R13+6l9x7zwZT9HXf7qX3Hnl+yyfhl6Yftcf44/VrkusvtM5OF1l9pnLOVf8ALqcsr0V+nqf2GTgQfor9PU/sMnA3rs5/p8/3LNH7R/5+v9qoADPsAAAAAABi+rsc7/C3EYR3qQXHB+G3UygplGM4yjLmmtn7zyz4q5sOTFbpasxPxe2nzWwZ8WWvWlomPg1lT3W4a3TRc81YysMteUGtlxuUPsvoW3dHLsuO2PJfHaOdbTE/B0/HkrkpTJWeVqxMfFmd3kW9FWlHi9aVXb3JmGbHfO4lO1t7f6NJyft4jpPbV55z2xTvv3MVKfKHjpsEYK5IiPr5b3+cqJcov4L2snfSWPdlhLaMo7VJx45+1kNYizd7lbK2S3Uqi4vJLxNiIQUIxiuiSS9xsPZnTb2zaiY6epX9Za/2m1O2PBp4n609+3lHKFZbsnl8ZiraVxf3dKhSj1lN7Hm1FWyVDCZCrjlB3UKMpU1LpuuZ8/szn85n7h18vfVa802lBvaMNn02NumWoxG7YTV3b1ThKpa6dtlVfNO6qcorzh4nT2N9oGQvs3kMdmr+VWrdbVLeU+XNdYo1sSSWyWyO2hXuLa5oXNvVdOvRqKdKa6qUehG62z6VggjRHbXhcjaUbbOVVZ3sI7SnL83Ua715sk2trfSdCj6WpmrVQ2334ty26m0sqNH+2O+tb3Xlz8ncZegoqnUa5+uSfrjtys40K1jptOtWkuF3bW1OCffHxZrC5TnOdSpNzqTk5TnJ7uTfeRMrRDg9WPtJ3uSsLWCblVuacdlz5b8zzE09iGlKuU1E81Vh/hbFNU21ynUa2/kQtM7J919W/E3Z3f04vbhtI0V71saKUVw0qaf1Ubj9vN76DRMqKltKtcU0l4pM0822Eq1CVux3VVHT+qHb3VX0dpfR4HJ8kqnc2RScSipLZ+PXwYTL6YJqSTT3TW6Zyal6C7a7jF0qWO1CqlejHaNO7iucIrl6/kbF4vWmlsrTU7PL29RNfW4X/MtupsykFpuc9hbWm518jbwiur9In9xF2pe27SmLhKFhUeQuNmlGkvVjL9pvuAkvUOoMZp7GV8hkK8adKmuW75yl3RXmzQrVGpL3U2cuspdNrjltRh9Smunv8Tv1VrDO6svFcZOt+Ti36K2j+bh/VmMlZleI2CWuxnTFTNasp5GcG7XGtT4tuTq90SL7GwvcnfW9hY0nUua81GEV3b978jfPQmkbTSmAt7Ckt6rSncVO+dR9W/YIRMsyaTWx8/df2E7DW+eoyW3FcOcfOLPoGardv2mqtK9sdQUYfk5R9BcbLo991Jkz0RHVrwZr2d6ljprVtle1p7W1TelX8Epck37DCg0pJprdPqVXfSuhWpXFGnWpTU6c4qUZJ7pp9GjtNMez/tdv9NQhj8pCd1j1ypyXz6S/obOYfX+kcxTjK0y9BtrnGT4WvJ7lt1NpZkC2VsziaNNzqZC3jHbr6SP9SOtQ9smjcPTkqN18trr/ACqHN+9slCULm6t7Wk6terGnBdZSey5kPduuQ9BoipRTX+JqxivdzIfx+uc3rntA05b3v5KxV3xK1g3w7JNpy8WZx+ETcxWMwFrF7N3cpNfs8OxHgmI5tYF0XsOYwdSrQpJbupVhD+JgumAt5XWosJRit972k2vJS5lV5fQXBW3yXC423229HbU47eyKNF+0O++X64zdZS3Uaigv9vI36qThRpTnLlGEW37EfODKVVXzOXrJ7qd9Wafk5ci09FavETP2D2fp9Z3Nw1uqNm/c2yGTY/8AB3suKWevWvm1Y0k/bzIjqmejaAAFlFM5KMZSfRJt+4+dmp7p3ep85Xb34r2ol7Ez6B5mq6WIyVRPnC0rSXtUGz5vQqyrupWn86rOU372RK1VZI/ZHY/Le0DHR7qVKVZ/7SOCbewOydXV97d/6NrKH8ZEJno3DNTu2zQUrC7lqSwpb0a0kryEV8yX1+Xd4m2J48hYWuRsrizuqUalGtBwnF9GmWUfNtNNJnEoqSafeZXrXSd1pLP1sdV3lRnvUtaj+lBvp7UYqUejaLsT7QJ3VJacydxxXFJN2lST51IL6PtRscfNSjXubW4o3NrVdOvRkpU5rk00bydm2ubbVmEhOU0r63ioXVN9eL63sZaJUmEjgAlAAAAAAAAAAAAAAAAAAAAAAAAAAAAAAAAAAAAAAHgyn6Ou/wB1L7j3ngyn6Ou/3UvuPPL9lk/DL0w/a4/xx+rXFdZfaZV1OF1l9p/eVHKv+XVJZVor9PU/sMnAg/RX6ep/YZOBvXZz/T5/u2aN2j/z9f7VQAGfYAAAAAAAABFvaFYbO1voQ7+Co/LuI2ZsHnbGN/i7qg1u3BuPtXNGvaUo7xmtpRbT8maJ2h03otbGWI5Za7/GOreuz+p9NofRzPrYrbfCecOTkFEntFv3fEwLOxG6Rez2xU691eyXzPycfvJYMf0zj1YYe1pbes48Un5syA6TwvTfRtDhxzHPu963nPNzniup+k67NeJ9WJ7tfKOSmUYyi4tbprZo0d7VtH1tNamr3EIbWN/UlUotLlCb6wN5DHNUaYxmpsTXx99SUoyT4J98JdzRkGOh88gZvq/s81FpS5lGvbzubTf8ndUouSa80uhgqqQb24lv4b8yr0id1Uoxlykkyj0NPwfxZ2nDaXVpEAklySSBxTbqyUKMJ1ZPpGmuJ/yJZ0h2Pakz86da/i7Cy3Tbl+cmvBLuJRvDCNLaWymqsrTx9hB8O69PX29WnDv3fib4aa05jtOYi3xtjTUadNc33zl3yfmynTemMPprHU7HG26pwivWl9Kb8ZPvZkJMQrM7tZ/wirlqhp+2T5Tq1JNexI1oJw7fbyVbVOOtd+VC34tvtkHET1WjoAy7QunKOptSUcXWlONKdKUnKHVNd5edWdleqtN1Ks4W7vbNP1a1Jesk+5x67g3Rx15Mo9HBPePFF/str7jmUuBuNSMqb8Jrhf8AMKdN9Jx+JCSUOL506kvbNv8A7OYxjHokil1Ka6zj8Tto069zNQt7etWk9tlTg5fcBSerH2N9k72jZWFvOvXqzUYxit0m++T7kSjpfsY1VmpQq36WPtXzfFznJeS7jaXSeiMDpS09Dj7Zekkl6StLnUm/Nk7KzLFuzTsytNJW3yq7cK+Uqx/KVkuUIv6Ef+yWQCyoWjO4azzeKu8dd01OjXpuMk/HufuZdwB88dWaVyWk8xVx97B+j4m7ev8ARqQ7ufj5GOn0O1LpfD6lx07LJW8akGnwS29aEvrRfczUnV3Y7qbATqVrGDv7JbveP5yC8Gu8rMLRKJyh0ob7pNPxi2vuK6nHRk4VqVSlJdVUi4v+ZSqlN9JxfvIWJRcltKpUa8HOX9RGEI9Eg6lNdZxXvKqfHWko0aVSrJ9FTi5/cBK3YrY/Ktd0qjjureg57+DL92/3aq6mxtrv+atuPbzbMl7C9KZuwvr/ACl/ZToUqlFU6XHyb579CMu1+6r3mvr/AGt60o28FRTUG09uZPgr4ozM+7LbJXuvcRBrdQ45v/aYFwV/1W4/42TV2E464q6vubqVCpCFC3ezlFx5z5d4hMtptVXHybTmXrb7cFpUa9vCfOyMuPin3zk5P3m9PazeTtNDZSUIylKoo00ord+vy7jRanTuI04R+S3HJL/LYlFVXj7Dbf8AB+sXQ0pd3LX/AJV05r/atjUiULjZ/wCEuOn+mzeXsjsZWWgsRTnGUZSjKbUls+bEFuiSwAWVYR2jZB4/RmZrptP0Dh/HyNAqMeGlBeCN0u3C6qUtD3FGnCU51qsIpRW/R+RpkoV1/wDFuP8AjkVlarg2Z/B4tF6DO3bjzlVhFP3GtHBX/Vbj/jkbi9hOPla6HpVpwlGdevUck1s/VeyEEymkAFlUedpGiaGrMDWoxUY3lFOdrVa+bJd3sZorVo17evWt7im4VqM3CpB9YyR9LTWHtu0DJS/tJjbdyluo3tOC33XdPZd/iRMJiWtpkWldT32ls3b5O0bcFJK4pLpUp9/v8DHuCv8Aqtx/xscFf9VuP+NlVur6M4TM2ObxltkLOop0a0FJeKfen5ouxpd2Ra5vNOZVY28pXH4suZcuKEvyVR9GvJ95ufCUZxjKL3TSafky6kwqAAAAAAAAAAAAAAAAAAAAAAAAAAAAAAAAAAAAADouaCr29Wk3spxcW/ad4ImImJiekpiZiYmOsTvCOf7u7Hn/AImpzbH93dj+s1CRgY39jcM/laMl+2eJ/wAzb8mGYfR1ri72N1CvOUkttmZmAfZp9Nh09O5hpFa777Q+PUanPqbxfNebW223n2AAPd4AAAAAAAAKZSjGMnLoluzXLJ1KdXJXs6S2g60tkTNqzLwxuLqbNelrJwgu978mQXFbJJvfxNP7S6itr4MEbTNd7W92/KG4dmtPauPPntvEW2rX37dZVlzwdg8hl7W323jxcU/sote6JI7PbDed1fSX7EH5d5hOGaf6TrsGOY3jvd63lXmzXEdR9G0WfJvtPd2r5zySjGKjGMV0S2RUAdLc1AAB11KVOrCVOpCMoSWzi1umR3meyfRGXblVxkaMn1lQfo2ySABB0vwf9Dt+rUv0vD02/wD0ei37BtB0Zxm6d5UafSdbdfDYmkA5sZxGjtNYbhdhirelNL56iuL4mTAAADhtJNsDRbtcvFd9oGScZbxp0oU/Y4kcl91VX+Uar1BW333v6qT8kyxFV46Js7BbT02rru525UbaUW/ORuIay/g628XR1HcuHN16UYy8tnubNEx0VnqxnJ6O0vlHKV5iLapJ9ZOC3+KMMuOxXQVebl8hqQ37oT2X3EsglCMLLse0HaSUljFV8qr4jOMbgMNi1tY4+hQ5bbwgk9i7gAAAAAAAAAAALBk9LaeyrbvsXb1pPrKUFv8AEwi67GNB3M3J2E6flTnwr7iVgBFdp2NaDtZqSxzqeVSXEjN8ZpjT+Kadji7ag0tlKEEn8S+gAeKpjcfUnKc7SjKUnu5OKbZ7QBb/AMU4z9SofwI76FnaW7lKjb06bl1cYpb/AAPSAOqtQo14OFWnGcX1jJbr+Z5PxTjP1Kh/Ai4AC3/inGfqVD+BHthCFOKjCKjFdElsisAAAB0V7a3uIqNalCpFPpJbnm/FOM/UqH8CLgALf+KcZ+pUP4EeujQo0Kap0qcYQXSMVsjtAAAACicIVIuM4qUWuaa3RWALf+KcYv8A4VD+BD8U4z9SofwIuAAtzxGLa2djQ/gR74xjGKjFbJLZLyRUAAAAAAAAAAAAAAAAAAAAAAAAAAAAAAAAAAAAAAAAAAAAAAAAAAAAHnurinbW9StU34IR3e3gegtOd/RF7+6Z55bTXFe0dYrMx8IemKsXy46z0taIn4yttDWGBrLdXSj9pbHiyGuMRbQkqMpVqm3qpLl8SFYQi4reK7+4rSSXJbGlW7R662PaKY4tP8W2/wCTda9nNBW+82yzET9WZj/4uOUyl3lLqVxcS7/UhvygvBHgOOpw2kt2zA5Ml8l7XvabWtO8zPizlKUpStKVitaxtER4QqjCdScKcI7znJRivFs2BwONjjcXbWy6xjvL2vmYBonT06lZZK6ptRj+Yi11/aJYNy7PaC2LHbUZI2teNqx7K+34tP7Q6+uXJXTY7b1pO95j73s+AADZWtAAAAAAAAAAAFvy1dW+Lv6ze3o7epLf2RZcDouLelc0KtCtFSp1IuMo+KYHzVrXdOtdXdaVRb1a85v3s6/T0f8AURvwuzHQ6/8AwtEf3Y6H/wDS0SNlu8wvsEs1R0Y7jbnXrye/jw8icS34vF2GKs6dnZUI0qEN+GEei3LgSqAAAAAAAAAAAAAAAAAAAAAAAAAAAAAAAAAAAAAAAAAAAAAAAAAAAAAAAAAAAAAAAAAAAAAAAAAAAAAAAAAAAAAAAAAAAAAAAAAAAAABac4m8TepJt+iZdjhpNc0UyV79L1323rMfNfHfuZKX237tonbyaywpVuFfkanf9Flfoq3+jP+FmyfoaP+nD4Iehpf6cPgjVf8L/8Alf8Ap/22r/FH/if+/wD01vpWt5WqRp0rapOb6LYkHA6GqSnC4ye3CucaK8f2iUFTpp7qEV5pHYfZpOzumw3i+W85ZjpExtX5eL49X2i1Oak0xUjFExzmJ3t8J8FFOEKcIwhFKMVsku5FYBsMRs17qAAAAAAAAAAAAAAAAAAAAAAAAAAAAAAAAAAAAAAAAAAAAAAAAAAAAAAAAAAAAAAAAAAAAAAAAAAAAAAAAAAAAAAAAAAAAAAAAAAAAAAAAAAAAAAAAAAAAAAAAAAAAAAAAAAAAAAAAAAAAAAAAAAAAAAAAAAAAAAAAAAAAAAAAAAAAAAAAAAAAAAAAAAAAAAAAAAAAAAAAAAAAAAAAAAAAAAAAAAAAAAAAAAAAAAAAAAAAAAAAAAAAAAAAAAAAAAAAAAAAAAAAAAAAAAAAAAAAAAAAAAAAAAAAAAAAAAAAAAAAAAAAAAAAAAAAAAAAAAAAAAAAAAAAAAAAAAAAAAAAAAAAAAAAAAAAAAAAAAAAAAAAAAAAAAAAAAAAAAAAAAAAAAAAAAAAAAAAAAAAAAAAAAAAAAAAAAAAAAAAAAAAAAAAAAAAAAAAAAAAAAAAAAAAAAAAAAAAAAAAAAAAAAAAAAAAAAAAAAAAAAAAAAAAAAAAAAAAAAAAAAAAAAAAAAAAAAAAAAAAAAAAAAAAAAAAAAAAAAAAAAAAAAAAAAAAAAAAAAAAAAAAAAAAAAAAAAAAAAAAAAAAAAAAAAAAAAAAAAAAAAAAAAAAAAAAAAAAAAAAAAAAAAAAAAAAAAAAAAAAAAAAAAAAAAAAAAAAAAAAAAAAAAAAAAAAAAAAAAAAAAAAAAAAAAAAAAAAAAAAAAAAAAAAAAAAAAAAAAAAAAAAAAAAAAAAAAAAAAAAAAAAAAAAAAAAAAAAAAAAAAAAAAAAAAAAAAAAAAAAAAAAAAAAAAAAAAAAAAAAAAAAAAAAAAAAAAAAAAAAAAAAAAAAAAAAAAAAAAAAAAAAAAAAAAAAAAAAAAAAAAAAAAAAAAAAAAAAAAAAAAAAAAAAAAAAAAAAAAAAAAAAAAAAAAAAAAAAAAAAAAAAAAAAAAAAAAAAAAAAAAAAAAAAAAAAAAAAAAAAAAAAAAAAAAAAAAAAAAAAAAAAAAAAAAAAAAAAAAAAAAAAAAAAAAAAAAAAAAAAAAAAAAAAAAAAAAAAAAAAAAAAAAAAAAAAAAAAAAAAAAAAAAAAAAAAAAAAAAAAAAAAAAAAAAAAAAAAAAAAAAAAAAAAAAAAAAAAAAAAAAAAAAAAAAAAAAAAAAAAAAAAAAAAAAAAAAAAAAAAAAAAAAAAAAAAAAAAAAAAAAAAAAAAAAAAAAAAAAAAAAAAAAAAAAAAAAAAAAAAAAAAAAAAAAAAAAAAAAAAAAAAAAAAAAAAAAAAAAAAAAAAAAAAAAAAAAAAAAAAAAAAAAAAAAAAAAAA//Z;" parent="1" vertex="1">
          <mxGeometry x="340" y="345" width="195.13" height="110" as="geometry" />
        </mxCell>
        <mxCell id="xqY8SB8kQwFQY_lp4gup-21" value="" style="shape=image;aspect=fixed;image=data:image/png,iVBORw0KGgoAAAANSUhEUgAAASQAAACsCAMAAADlsyHfAAAAsVBMVEX///9BcZj+vjQ8bpYyaZMpZJA7bZYsZpE1apTN1+H+vTD+uhr6+/z+uyJ6l7Jwka7j6e69y9inustQfKD+5brs8PT+uRNbgqT+47Pd5OugtMeuv8/19/n/8dr+zW/+9uaGobn+wUD//fj+1o2VrMH+w0tmiqnU3eX+z3X+3J7++e3/9OD+4KrF0dx/m7T/6sj+04P+yFz+yWT/6cP+xlb+0Xz+2Zb+wkj/79T+3aMPWorAIVKxAAAPr0lEQVR4nO2daUOjOhSGoayF0kWktS1qbbHVahfXq/7/H3azQIHkhGVmWhR874eZaZGbPGY5OTk5kaSGytucBdvecrnsbWfBZLrpV12gb6fO1NVUUwml66apGsZy4lVdru+ktqIqMifF1Lq/mCINNJ5QyMlYVV24byIPM9KhtoSk/Y5NRF2ERws2SwNsS6Oqi/ct5KOGpA5839+YECVjXHUBv4M2Kmouvud5fbApmZOqC/gdNDFlPcCQxnB/W1ZdwO+grUIh+SsVnuKqLuB3UFdHIDzfb4/g+c3sVF3CbyAMSdF7rgEzkg2/6hJ+A20JHEWA6BcSUQDO/LG0X0iSNNUMIk0zNAOwu38hSdhH0l6N+2h2873+ajDjKP1C4tVnKTV5TPJXg0mANJkONqu+7+OJ3u8PupyxhCDNH3bn57vrqot8ag2WhqGaiq4rpqmqeDDSFUVX0R/Q7HY/dJBsa7Guutwn1EoWOEYgIUgLp0XkDO+rLvrJNBU62SCpHenOaoWy76ou/InULsUIQ3o6QGo5+6qLfxJ1coxHVnpHasWQWsNd1RU4hfIsbE6SZMeMWtZN1RU4hQQOEZGUkbROQmrZL1XX4Phqg641sfSZdJmCZD1XXYXjq2xvU6fSuZOE1BrOq67D0bUsbiERaZ60sFKQ7I+q63B0lWSEXdw3aUjOY9V1OLb8kuO2NmaGJDQoLaquxLHllbMktTNJurIYSFdVV+LYgveN4J6mqPpAks6ZhtSyXquuxLG1gjfXTNXQdFl2Xfx3Q8PS3e2gAzBqWbdVV+LYgiDp2miy6Sd2jjo+9S9J0uUVx6jVaiIko0sjR+br9Xo+j4yg+fryfHFjWzyjJnY3A4070vndzXBo20Mq27HxvxwHQNSEgZuLikAWtbSzHAvkAcqqvbfEYyApLmI0LE4Iyam9e7LDGJPqQJo7+WBSkM6rrsTRxY5IHem+JCT7oeo6HF291OINR/vdlOpsCFLVVTi+JilXiR5I62E5Rk3wJ6WdbuZU2pUdkmrvBEBKQTLa0mNJSMMm7OQGyU1ao3/YeSyoJvQ2xlmCJre3cuP28LLqCpxEk6SpxLuLsuXU3uMWanmghJ2zz2UgOY3obERbLTSW9JkIkoXFfThsSjvCWnVVzVBVVZtCkCzHtm9eX29v0J82DrohxBxneNWM8SiWt2pv2m0fgOTcXkSz/Hx9ubu4X+zvrt4Wn7v677cJxUKq/2ZIrrzJSNbPkp/wLem/xfnu8uHh8uNj9/LyUv+tSEbjnmYqsqImP4PGJAePRnRAsltVFbYabZYatbZTh0Zz7aTKyntidTwcoX04PYKWtbGEkCIToLJSn1L+xFWNVKx/6qDfHQzJchZPdmMgBXgY4ny2seAFrnX3sF6/OE3YikTjkALEIxnJI2ywq8TZra+v17dWAzaQPPCItpZsSAKnm/OJIaGu6HxWVfgTaWrwAf6os81SD81B9621x5Dunbq7RrwRGByh95jnnqCR23q9Xq/XC6vmQ9IUPi+KdyPT2sFNydl/tlBDqrXB3RUEIgHZR/ZA5AjB1GrZdV7Iea4gyBZMq/Em2uce1nrbvysKRFYC6PHdrc1HkFiOVe8NbWG0tnkG/8Dl+6sTO9gsvMJ9ujhtmU+uM1GQrQ62JKqH3cXn4u3u6upu/37xUX8X23ikwQHbv6l+khp3YUzabwaypDwXHJSgVD99uS09LN7vPx8vzne7j4/Lh+t1/bsb0QxalPDGJGKkqRPpg5xGdiKv5LD24aNUU3CKA7K0jRS9y56OqP/qnwoObE+5JYlwdIArPTCQGnIkGT5so7ALXJywTNakawZSrY3thEAjQDbZx3C3NLz0IdLmREb0QCOAW+LiCEFjzPiV6h+IHCqApjd+ZYIhqRuJgdSEqD+sM3B64/L9EUgDielu9V7cxhrAKziNSWWHGxya89K+bqcBJ9uJNjAk1LVSwkYnMsQbdxyZqg1DYo0AfMBbn0lpb1ID4v6pBJDYRS4e3pUZczLAbkquJEF3k5Uu9xRal/zXTEjw4k1mTKWoC96mIDkN8QII7CTCJM5mR1NOILvgNQ2pwnKfVIJstpiJG5oBG5k+o4yYTcqmQPIzcgAorid57UCOHkGQnhsJSWBLhlRwzFLcHRGkq0ZC6gqHJKhlMdFcDZndSiVvQy0pfRLHrnc0SSTYMSmGtE93t2Z4ASalWtKSySVV85ibSGWGJGxMvqfdAHYjciW6ZZJuoWUJA6llNWHoLpVOCi1wOUit+lOC72oRtqSAT6Jg2bX3TopcALC0KZRpwq77QUnYwS3obPh04CcQq+zUfLO7W3zcNl289Q1Gvdv1NpdKNCMa2AVCqncagCwXQEqqG15O1kBImS6AZDM6bFVeQJDqvZFbLMetsYz3BEBIwzrbSuMipqSSOtMFQbJrffxG7LmNZY5SW0vnPCSn1pFc0wLDtsnsUfKQ6u0JKJIGmAtW5iHVe1upyKjNXUvKQar3bQBFOhsf9c5Cqnf6VjbhJig+npuFVO8IpUImktpmf4yFVOu4kiKdDbrbjoNUYzuy2C0AwMEAFlKdje1i/n/gcCBrcWe0JC0tQ14G/KnVv9ESv/Zrk//gn2lVzLUNHMXlIIkTSvLMTW30L286J8HVBjds/isVWY/gWvE/yUESD9zgG7V/+IsnkPi55R9pU8yNZAIHKFl/UklI4NGeP9VxIRXcbIPqUxqSGinMGPMPL4Q/KqSCDQmsDrsRkAdJ37Q3VNMwc+W/a0pHhVRwRAKGbYnbUsqDlEx6Rk+Pq9wpsT/VMSEVcrWJ+gW7g5sLqcN+knVUvJyOCQk8UMoL7hZ/BYncFa9sD//u+P1+30ufz/DQR+P47+BNzehz7AnkIUEvpF+M24MBvvAY+A5UMee/OQN/mE3JVQoSCfTVSXy4twl6rqmRe9HdbcJB3EMffWE07a6Ov3WDdNB9fzIy0eea0m2nIPUHwdJV8Qs11Z2lDI3OdGQYZPJAf4yCIk2v2FWJigz/NJtzOiPWDWhJ4bECJE1N5EdTVOWACa8FUMW9UZjWCVmgiUGssz3kVVNoAroQkv+l6ocXKoohx5g2ZjJVnaJ/FaBUrLdpAtOYzYBXChIpK3W/sIXQZglI5lk7ma8gpuQpXOEjSOyv/rALNmCHYHBCgsqeJ0M0BbFZOctAolF1dB1B/qroSCGNKD0aWVXSdDyKEn0Xjkyd6AM5RpiClHohZRE6qRUTm2omfkEBSIUuuGOSlSXEZuTKOMzFQgq9M9QowBeiy8vuLJj1ohjoBCQk3XB7XZf+SOT7m9HwDtNwR64RpseKIGnohS554ZJ+E3pVw9/M8gwN3NPJ1tVULR9SkWAbU2wVv/4ppH4vVeHtYBx906F1Dzs4haRoMzK5jmkzoC6b8PdrTEnDWtHMRhGkxAt9+g56zIoYhWrMxd/08sekAsE2UH6JSOwlL444aDIBqT+NcseAEwKtyCCGpEShB+E0Q99Cix7vTYjtJAqTfIPbRMLqKKb8cVuRM4wJLpuy2McdQxrFU5IBWV+kS4RHowmkRM0TjYJ4nBNudzGkbUwdQ6YTagnlu9uUrJQ37I6SI04yFUM6/GJ0HZw0eUjxBE4W4xStHPMiEkMi/0MKKb9KgHI3AMDfdSQu32RGuHsMKeziitZLGtDeYDLbdrezyWamFIFEJ7BEVgcWUv/wwm7ckmjaA7UbEE2L+UbzIGmZw9o1myMwI1dpDAmfYFVMo5cs4QDNM6auoP9CWy8XEtkES46XaUhT9oUU0lQN2zCWaRp6kfV1TncTGkhU7J3ALee9AKT+l6Euz5JNvrPkslsVhJTYLk1C8kdcxkwKKbatolaQOjYLK3vgxtdvZInLgZuRrSSG1JmOmblgSTsg+qUjC08vA0nQklyde2E4Xa7YX0dOO8DKNgFSsUiAuFAA660AJE7U7afrwZRYeMUg0TEp4aBKQKKGqi4H2GQMuqm6eD3NSDlH9VxI2ceS8iBxIZMZaaYyIJGBNXZYnf317EYsLf3QkRKzG5aP/SRIZ9RvLVqXxmLvk0xLlGEyEpe8PCOmNAMSbfaHshY0AaidFHeWBCTSwYwDPwYSW6acliCJUgGFyhuTuDT4GSFcGZDoOuRgDxSEFB47S9eEQOqQBYt2+EYIKRB9wSj70G1Ohkl26dbKuB2gREvSC0Gi96rHWbATLYnUyThQT1jcaQm/YJU5vXEZuNICTpYIn82A1EsOIX5AqpgPKdzB0N1p3/f77Qn9H7QPT0Xec2+rJnqVux0cuuGKwixgUU6zmlKmvQ0leB8KH86ARKdYczRot6ddI3SA5ENaRb4hQ0MTlpmAFG7E9PALe0bKBBiZqiYvt8FkEoR5/o18RtluNzYjUFoPfFJuccREBqSOEdYWTctRwy4ASQr4qZlC6of44nk+hkRmUmSHm6E7ToUyjXJqZ/jd+NyJSb0A3U24E5ABSdoki4DKXxCSFHCGehgwcZZ+YWJ8ZncZ1YJbyDOxQZltAwAHucRetyxI0kZR6XoB9Z2tPzEKQpLarnFwuyDz2lCjOJWBGno4FdUIOjMjhpS8kkUxD870XImDAbIhAfdzijOWkaikL6FvatB1VRy0RNZ0ky/ti/aCHhN0JJN/J0bKVbCU0ZhkyqNuMEgsdzpT+sIecVzO0AsppE57spTJ1hXSKCi+yS6OKs0ek4DLpzMcSt9IHW+8Wo1LepU2omEpM8n0HLhMoc4nlARZk7KNSc5R0qp3Ztcx3OGyjVHoRGCdEykL0t1lexGgW97qfP4GzuQGZnSPBV+Ge6ISVyDYi2tkRqZ8gJfg2PU9pQT2NiiSNKE92JLqe3AC9pdkXzIxB+94q/ERHDBsMmc3GL5Ssb6Jy2EDgDsBmNIleHkZGrhvTlXqEwu+hyPTkFzz97lHg1JNE7uBU5syAqM4qdbAsi1qSk+nK/gJJciapOhCe/uFv7QsMSrV8mIO4d6bIYON6fIZvibwQKn1I1wB5dRnfQAKdm/iCD3AJbW+eLXzbuZuOc67+EzXz1TH1bTQDaUhMKo86m2Ds0GbcbjMr3eP+xvgekAQk31VuwHc74+x+n0v3cHWl7vzi8/F/u7pBt8p5QjnNF7W8Lmexvd8/fDx8XLxeL94u3q+bTlDm1yXSO5LLEwngakOmRTm6+vL3e788f59f/X0eoP6yND+KyyMMqKVfoguLHor24HJ30Nh9fNv6cqfowQ1ByR69Kd74LhwRxDG4RbAIR60MYwbpP+QbqnwX9En+Hn84NA+NE78/E/PYk5uQky3h8TNiEPburl9unpb3H9evOw+HtZzpLxX4mfWD5cfH2hGJOPc838/PZfCendxv9i/XWHd3b3t94v3+8eLc4zkGDds/g9vsyCwu+9ROgAAAABJRU5ErkJggg==;" parent="1" vertex="1">
          <mxGeometry x="540" y="331.88" width="183.57" height="108.12" as="geometry" />
        </mxCell>
        <mxCell id="xqY8SB8kQwFQY_lp4gup-22" value="" style="shape=image;verticalLabelPosition=bottom;labelBackgroundColor=default;verticalAlign=top;aspect=fixed;imageAspect=0;image=data:image/png,iVBORw0KGgoAAAANSUhEUgAAAWoAAACLCAMAAAB/aSNCAAABs1BMVEX///8Ax9QArUbkOSEBfO5RUE8R4e4E1ln/dVcMtv9OTUxCQUBGRURKSUijo6IAw9HZ2dm3t7Z5eXjKyslpaGc9PDrm5uXDw8NzcnEMuf8Ab+0Ac+35+fnY2NgAeO47OjgAqj1dXFuNjIzw8PBjYmEAvP+UlJMApzDjJgD/c1MAsv+mpqUS5Pecm5sE2k3kNBniFgDuKQCEg4P/bUkGkvR5rfQM1+QDyVNWv3bsg3nyrqj87evjLArpZljmTjuC3OTd9ffm+PrA7fFt2OEFjPIBid4BukydwvbV5fvB2PkE3EcEtWU/uGXl7/0qtFns+PBRl/HG6ND40c7mUD7paFvti4Lul5D0urXrdmr2ycXlQy2Z4+m36+/9kHvzsqz/hGr63duncYyBiLOxaHxzkMHVRz9js7gsKynOjX7MT1Dfg22SfaCymI9UxP9hmc+PpqRHpOF5z/8InvjEV16IaX+RPzMygqtNQTQhh486cndIUEBNODYqoKkDwYZNPkgDvI8I3toDtJ8DorsEynOxzvgLy68CkNQCm8WGtPUCmMkKyKWO6aeo7b3a9+Oz4cGX1al2yo+zAaHfAAAS+0lEQVR4nO2diX/bxpmGIcmQJQAj8QJJSSApHrpCy3Io16fiJI1y+4js2LHVw2nSrttuu1t7t9vubtMkPXbbbG35T945AGJmMAMORuAhQ29/TQQSxPHgwzvfNzNADONUI9Pdw3v33njj008fPrx6/8GDa9c+e/To88+ve6M+jDffHPUeR6+HezuB9pA2sS5c2Ln36dUH1x7dvT6So3hncfH7I9nROHV9c2dGKMweUZ954/61R8Ml/s7iVAZQG9d3JKxD6Aj5hXtXr90dkq9A0plArcDaj/K9zQs37n+Wfny/CUlnA7VxfUaJNQnwzQuH9x+luntMemrxrVQ3OqnyDpVZE9ybD9OjTUhnBbXh3UjCGuHe3Lx6N5Vd+6Qzg9owkrJGtA+vHX+/P/BJZwi1cS8xaxTaD46Zk/RJTy2+nc55nATd20vMemZmb/PBcfYZks4UauMNHdYzmzP6LSRFOluoNVnPXHio6SI06anFdM9l0vWpHuudPa1k5Ic06ayhNh5uarGeuaCRi7CkM4dam/Xm/aR74khPTQ3jdCZaV3VZP0y2nwjp7KEeEeso6QyiNu7rsv6R+j4EpLOI2ngwdNbfF5B+Z5inNLF6cEGP9YwiaxHpjKLWZb2zq8RaSHoxA8O4Ql3TY3249XjwtoWkp6Z+MPyzmkz9WI/11mDWEtJTPxzFaU2kPtNifWNu63F8h8hbEtKL2UWtx/pwbm5rLo61jHRGRnEl0mI9F89aSjpmEKbcam1rnUATrGv9bgx6pMF6C7OWzV+Qk47prq46oFHROf6GVdL52Vh0NznrG3OI9ZaY9dty0vKOvbZrmlZV5/DdE4RagzVGLWH9thz0lLwu7zqWaTbaGkd/olAbd5PW6IdzUtZxMR2D2rSsogO69EflXJldohoHL/wSo27ncp70pxOlz2WTJ+NRz23t8qwHkJbV5TUbbBvAMslSu9GoVEzXtt2gxdu24VKj6gPMVRvwO7CAF1yr2i7B5UbPh+210C+trjGZSsg6QA1Zf85sJ9495HV5C7hlYxvYNbxUds2m49i2YznYHDzTAbYDF13MutKwgO3CL5sILlwX4HWBhVm3AVx0bGBrOf8IlJD1nJj1ANLSutxzrQ4iDFp4sWybpt0tl/PAtPNwed1xWm3Dy9u44Ww3THu73C42Lbw6bE/t7Vy54i8aHcvueka5CuyFYQI7hhQnqnJRDUWxHkhaVsHkHQchLVkuDkyI2saJX861LPivQqOAVyvg77eBg83Bc6yGh1Dj3xptx0TfFm3fWJqWPRxSx1cS1jTqud1gIH0gaWkF0yGMfeIQtdUkX1SJZ/guvADsMg5bsty17TZCDci369h/4D9JHpN37GL6lNJRgknBDOqAtTeQtCytDpyD+AhCHVSAXeDzKlcWeiXLRKid4DoQ9ZM9eKGK6M6wckjl4LpNpNRZs6gJawXSslwPtoc5/Mc6wEFcDkwA4UNOksfpiAswaq48pFFXkG+YcE0o2GxOqllDXT/cmdnb3Bw8I+fGHMf6kRppSa7nmFaTyASoI4RBDSO1gPKJ7XxuHRuIH/qBuKiGqJvBxrQK/RHJu7H5ky+++HLn9QHhvTsXYa1CWpLrFW3TAkSW6Ri0gSwg/624VgG7M0HdT7+NMroFONRVyxkuo7TU/s3a0tLa0k9/9nos6i0e9dzuP6mwFvdWVy3QaxGVLOTNsFn0acL2sm30gN8OwqSijNzYb/hajSflCOp+cm60dcr80WltHmtp7YvYPDtCem7r5ypR/ZZon203bOfKMIBxskfyuQpORVo4mBFL7NVdh8Q8LHRQOsehhvkhqV1KjSeTzHppPtDS/C9iAluA+pcqqIU77QIqVehYjTZCbdmFSmXdNl1Ir+haZj5Xa9kkA/GA5RQqxS5sJJGjc6iNAgDVWrnYAWCSu6FC0lBrP5GyPtSManECYoFG2FWUt2E8QwOpOlDAIp0gLReX3k4pSFAcgL51e+jLBugEP8V1j9eBjagN/18a+WPd6lqbZ7T2hYw1n4Ag1AsKpMUJSKFE9Qx51VIeNYvddg807JKfQ1RKtmv1yrVOFePztpsw8ysU2Z/XSiXSHZWHazvVSU4/fj3Pae2nEtbRVnFuN75Hj0h1ZkKY7L2aipCWs061VRToFUctIC3zEIFVKwW18jT2Vxv1r18ToZ5f+2cB66hVb/1KgbT6fL1yw9YbPT8JkpCGrL+MDoZFrHrrsQpp9UlkXq9XG+bZjlNS0jDB/kWkltGzjyw9iCtXDGkovvcp4h9qRXk2Z7Fziie99C+cXfP+sfuvaqQzOrWaVjxpVDayds2TVilepjI+XY9oEGkY1z/bkfuHKunsPbEY0dOBpOeXfvO61D9U3ePUP1RIcxbCZHlbii3iGP2jnatBkQG1NvxrXPOeCOmlvmRxHb6KiPaPrcdKWR7ROE6v3S25ro3UQOVn7Qn868l4xtEh6aWl1549u3hxH+rixWfP0AdR4FQWQpuHUsepH9QpPG+UKyG11H+w3UCTLrHweEHegX+Np+Z/Or/07OKZer1+xlcd/b2PeXMW8m87fP/HlrpNT6m+ByS/jrQtGT2pAgvKVe4dLTlmX2NG/fQ1yPlMVJA3xM3Q7reM/UZx95cJzEOxUcw38FiuY4m/ruIQVZ7dUQUhaROMFfXTiyLOfd5nLtK0177co/1jSznH84P6LZUjMv3bXTItKRnqik0Y2w6+fGiT40L9tB5HOkobh/WuD/rniUJ6Sq1RrNnB3d4Tfp8MdROvbfdy4UdjQv3+8gDQPm3oJH7CtxcE9e5j5RQvUVC3+nd8QzgsWHUSeHXZxTHNdMaOB7UaaUx7/xkJ7dd3dm7gXDpJc0ikVr64fWcVR26uiqT4PBfGalrRz0aNWp00Ce35pfm1f//tbxFopVEALqiV0o8KhoMjm50AqaVttCHuObtxoP4wCWkEu37xtf/4neOAuV8lNWlEWm1MoITMFeQxazc3eP149UD07hgD6lsJSWP9DrXjv08OekqxUCTm6hrrgnDUUAFdOIdNZcaAWgO0j/o/NUArvsUQ3/Ew98jhPOTYM/4nA/X3BmV5UdWX3/0vmJ/+9x80SCv2M4Ego8ZZmnPcGTMTgfqD5Pax/O5XH70H/vjH38/OXkpKWnHwtoiDGT1rgYEc+7nPZKjbtUo+n6/UUp5QuZ8U9Mr+1+fPnj373u3Vb2ZnE8JW7mbCaDCGNjFtQWfneqdU6hTZ5RJuQNuV9QL8u9OF1wx3SpVILdQs0WqaQtTl7aZrozmCju02F9j9LqBd8IeC+734hruG9s82w39ZSQj6zLfnEenL09OrH5+bnU1EW5k0zTekzp1hA5UwFruM5pu2e66Du6LQNNYm+cuvOxmZItTlqguC/j/4A+D2qND28C741BOVUgBwH+I9PGE+SmbU9eU/nUWgYVBPT09vfDM7mwT2ovLQS5dyjdBLONSkcGeXrY5RdPtlpl32C3K5ONR5l18f0PUo3hp3h5EOBJsNa5xAsS8keD9RUC+/+2cC+uxZSDoMa0Xa6oNcJt0WOkELqYK6lGuEmBKjXneDaMaPhxC54dTYBUF6jnOlyCVzIismCumVbz/yQeOgpsNagfYlddIkUFz6XKJ9TkLUZtNnFRhI1cW267uFQyuKqEs2adlmb6G70LNs8jM3z+yDe3sG6YC0TOZDXIC5dLOaxKlXwpAmQQ11+9wsq0sy3JdmEwzctpi6hVQzkT4nMWqCyu7gDhIYjl4FqUhqz4UKLVIdUahr5Iawq4EZFJtkOKHRtwyM1aUPJdgtYyse9g/G1PcTmMcfQtCoUSRh/VeetYj3pUvwwwSk8YFS7texordtDGq7Gp3ip5Tskfh06ZcstEg3Vf95PXx5GDNb8FsG5pUauAOH+UQ9p67Xv6JI+/6B7FpAOiR+CUMmimPLiaTSTekykQy1K3ofhQpq0vvHPUna69dSWLiNBvSAZtAYMI9P4tuSaSmVC8X6/mWadOAfEPVXorAWSMpVIBLFFDGS+nGpqwS1+KFbFdQYWqRYIk7ct2e+M5akGnxiQnol6c2oOvXK/zCgw6COtIxpkPa9mWpTWqI+JzFqrnkKpIA6R2yLNx8S6/0Wrmex8doF6EKgpoByOHwozPF+qIh6+X8/YkiHQY2UNmk/4yhQn9REfU5i1JIBMAXUXSC8Uh7ZbJBc8y6M7kCQx8DD+2Eh4uiK/hEhfZkmrWIhMqhiCfJoJs/2JUZti6crKaAmVWm0u7bKfE5yi74v4zvQLeN/hfchqXTojagF9QpPmvYPbCGDWMuYiiWqDknEsfmsBLX48UQF1E1hnhPcZP19V5mMGW0DNdgm7SC4W4EpBNT8Y+XvPGnWP+KzkOSk/Shin35pNxjDxEobNZtqcKuF+Q9bByKTRnayAKjLQVah78G/qfhH/d3zPOnLPOqPY8NaDlUocU9eNdrnlDJqT9SVgVRkkw6SchSog0XHincelDZ4Z0zJta8S1PXLPGnOPxDrr2NYx2EViXgFn3IJXCVt1K7E6kmbHL7rAhuNHW6CBDzdmLj8GSgNKS5/HQlq3j+kRaMWab8FjFimHcnERos6TH/o9ALdbGQLyNH9WMdhwZyBilXXo0YtQi1vGuVIJeJjiDlBQDc1KaNuq6KmkmZ8eUhpRTkILt4ZB1RJ9Vai9hGx6jjWMUwlIoWwWahywv1FjAGOK6qxV5D8GyXZQSYO+g4CTI2upvqfovYRtWri1yLWingpeUGHcUT4Y/q2HFmzyDcTYdSirQa5EvoU33Uk6pkWXMGql/8cJS3yDwlrjTdw5KlJ0ALRwZJ2sudEWgMiXB/SVWTfi/HVCS4ODn5UtnQjXU0fKFj1vsCpZaijbaPOu046AwZNqD6ntFGTia3RWRD04BuR7X9ALkLwKVpArSXpLKO3oDDUVf+7wD+EVk1Yf3fuuKRJT5PAPgILoQrntFGT0YNoD2wrMgiEu5xgE4jalbDWQuuBFmlemW5WlVZRiFps1cRDPp4NYWv9p1jXyXTIkkj+DOn+ummjXhcU/0ikkYh0/MP4txnHwQ7ikC/ZonN/sH8IDSQG9fTq6nc+7HN6/9Fbh4tcWiQbC+/wtFFX2N5SbrO0h3skcDFbqrnEjHO9SFeTSqt4ZvlblQKGgT393Tfnzp375qXwhAfJP1vJs4S4OA/DLm3UJAUB/KtHCsS4okditiw2LLCDrOODpHuAjVsqfU31W/8XYR2PGsLemP749sbGFTGueBGYHcm3XNiljToY22IvdFF0AfyJ8Vy041UFT40o1Yq3DCPCehDqgPhNCbAY+RYhfbqFnHXgmqmjJm2yZdEW4u+Es5Vy/4kGJtPoD9mzq7+v0CreQivyrBVRT6/elhGTqkvmrUtTF7/RZClwVI6B2n/6xgLhank72igiBWO3bKbhV7p8Z9ngBISQNox/MKzlud7xWeO7D8ifry0zo3/po/b8x/fsTj7X9tq5rj8NJPriyWBGAptpFP2w5q7MJ4NQr9wKVmVYq6NOzLoWbes54eog6HNKHzV+0S0OS8d24f/8qWSWGdlmMBGCG+4Uzb4ZPINs5YNw3X8IJtsosZ6+I8cWVU88jsrDCRxmCKiNskU/s+vHaFOwSUvgH4GD8KcwINejSTOsk6BOyNoV2iItD497+e2mPxmh/2VtIGp7IGrD67ksbNAQZvmk2XC54bGKKF0ZMC7AkjaMF+e1UCdjbeIXSMTW8+uN8L0SbfR3IyyY8bIryRS38cpsHiF+SUWuh5zDslDvALDtljjJb6NjdSMe3sSnwO4mvrNp+QN+G33WyVAnYu3VcrnagJ4T/J9ooNanO9Da3DL/w8jzFuVaTvTqFa+4UECPGZR6XfnLQjzqQLjj404hdgpqlLRhHNATqxPBTuTXr6Di0moR6ZB1UtSZZx0zMUFM2jCen9dDnXXW8gpm+UPZbwjruJ49iTaej/LUJk3SCkZOGrLWaBdPWe9rkPbjWgP19MbBqE5s8iQJ6njShnFHE3WWWYsrmOW/DPrdHT0HyTBrT4h6MGnMWgv19MaL4Z/WJEpYl6uQRqw1cpAMsxYNd6mRRqxXT1mrS9AFsvy+8q/fO2WtrujIYgLShnFbl/XR0M5oYhVBnYj0KesE4jv2EpI2jJunrBXFdewlJm0YVzZOWSuJRb38N41NHOmy1pv4dGLF9KGu6JA2jINVPRPJGGsatSZpWHJqmki2WFPd1dqkoQ6mtWBninWIeuV7x9rQCy3Yq1qTJ0+m+qiPSdrAsJN7doZYB4MwxycNdXAlOezssPZRp0Ia6s7R7aS0M8OaoE6LNNKdo5sbibI/nQnYJ1GfYNKfpLvROy9eTifArTEB+yRqfwiksSDumxuQtwrwbLDeHxJpoucvjq5Mbwwmvnpb59nGE6b9M/Xhkfb1/ODo5ZXbqxuEuZD66vSwD2L8+mR56KT7uvP84MXRy5dXbhLsvjD91Y1Xf46ZN2C+x9B0B+r5wcHBC6Sjo6zOWDhV+vp/CZbNZMTKfGcAAAAASUVORK5CYII=;" parent="1" vertex="1">
          <mxGeometry x="414" y="130" width="234.39" height="90" as="geometry" />
        </mxCell>
        <mxCell id="xqY8SB8kQwFQY_lp4gup-23" value="" style="rounded=1;whiteSpace=wrap;html=1;" parent="1" vertex="1">
          <mxGeometry x="780" y="130" width="450" height="360" as="geometry" />
        </mxCell>
        <mxCell id="xqY8SB8kQwFQY_lp4gup-24" value="&lt;span style=&quot;color: rgb(0, 0, 0); font-family: Helvetica; font-size: 18px; font-style: normal; font-variant-ligatures: normal; font-variant-caps: normal; font-weight: 400; letter-spacing: normal; orphans: 2; text-align: center; text-indent: 0px; text-transform: none; widows: 2; word-spacing: 0px; -webkit-text-stroke-width: 0px; background-color: rgb(251, 251, 251); text-decoration-thickness: initial; text-decoration-style: initial; text-decoration-color: initial; float: none; display: inline !important;&quot;&gt;Visualização&lt;/span&gt;" style="text;whiteSpace=wrap;html=1;" parent="1" vertex="1">
          <mxGeometry x="920" y="510" width="120" height="50" as="geometry" />
        </mxCell>
        <mxCell id="xqY8SB8kQwFQY_lp4gup-27" value="" style="shape=image;aspect=fixed;image=data:image/png,iVBORw0KGgoAAAANSUhEUgAAA5gAAAFoCAYAAAAyxVSNAAAACXBIWXMAAAsTAAALEwEAmpwYAAAgAElEQVR4nO3dPYxcx5ku4G+0kgnDNCgwkgJpZgE7kQLRERMJaoW2g2WHjthW1IAD0ul2sK2gnYoMDHRENaMbbNDjBewNNYScKLIUWMk1cGekwIq4IkxBkITV3KDPyMMhOX9dp+r8PA8wWK8kVn2srp4+b9c5VRv7+/sBAAAA63qmdAEAAAB0g4AJAABAEgImAAAASQiYAAAAJCFgAgAAkISACQAAQBICJgAAAEkImAAAACQhYAIAAJCEgAkAAEASAiYAAABJCJgAAAAkIWACAACQhIAJAABAEgImAAAASQiYAAAAJCFgAgAAkISACQAAQBICJgAAAEkImAAAACQhYAIAAJCEgAkAAEASAiYAAABJCJgAAAAkIWACAACQhIAJAABAEgImAAAASQiYAAAAJCFgAgAAkISACQAAQBICJgAAAEkImAAAACQhYAIAAJCEgAkAAEASAiYAAABJCJgAAAAkIWACAACQhIAJAABAEgImAAAASQiYAAAAJCFgAgAAkISACQAAQBICJgAAAEkImAAAACQhYAIAAJCEgAkAAEASAiYAAABJPFu6gDpdvhPXIuJaRAwiYrNsNUBCexGxExHb99+O7cK1AABQ2djf3y9dQ3KX78QgIhYhVEIf7EXE6P7bsVO6EACAvuvcLbKX78StiHg/hEvoi82IeL967wMAUFCnVjAv34lFRFwvXQdQzN37b8eodBEAAH3VmRXMavVCuIR+u24lEwCgnE6sYFbPXL5fug6gMd7yTCYAQH5dWcFclC4AaJRF6QIAAPqo9QGzOorEhj7AYZvV7wYAADJqfcCMcBEJPJHfDQAAmXUhYA5KFwA00qB0AQAAfdOFgOn2WOBJ/G4AAMisCwETAACABhAwAQAASELABAAAIAkBEwAAgCQETAAAAJIQMAEAAEhCwAQAACAJARMAAIAkBEwAAACSEDABAABIQsAEAAAgCQETAACAJARMAAAAkhAwAQAASELABAAAIAkBEwAAgCQETAAAAJIQMAEAAEhCwAQAACAJARMAAIAkBEwAAACSEDABAABIQsAEAAAgCQETAACAJARMAAAAkhAwAQAASELABAAAIAkBEwAAgCQETAAAAJIQMAEAAEhCwAQAACAJARMAAIAkBEwAAACSEDABAABIQsAEAAAgCQETAACAJARMAAAAkni2dAE83Q9e3o8LmxHPvbAfz1x89N999zDi28834uu9iG8+3ShT4AnUX1bb64c+G45n1yLiWkQMImLzyL/ei4idiNhezifbeSsD8zM140nXbOzv75euYS2X70S7/wJP8NwL+/HjNx4PBU/z3cOIf3ywEd9+3oygoP6y2l5/Svffju79pei04Xg2iIhFPH6R+TR7ETFazic7NZUE3zM/0zKedJWA2TA/urofP3zlfH+lrz7ZiC8/LHs9rX71N4mASZsMx7NbEXHjnH/89nI+uZmyHjjM/EzLeNJlnsFskB+/cf5wEBHxw1dWK1elqF/9wPkMx7NFnP9iMyLiRtUGJGd+pmU86ToBsyF+dHU/Lvxk/Yv7Cz/Zjx9dzR8S1L+ifuCsqpWM6wmaul61BcmYn2kZT/pAwGyA515Yb+XpqB++sh/PvZAvJKj/UeoHTqt6BmudlYyjblRtwtrMz7SMJ30hYDZAHbcl5rzVUf152szZl1tlIZtFS9qknxYtabMtFi1pE9YiYBb2g5dPv9vnWTxzcdV23dT/ZOoHTlIdTXDa3SPPYrNqG87N/EzLeNInAmZhF+r4VZOh7Rx9qL9sHznqh56r86LQBSfrMj/TMp70hoBZWJ3PuuV4jk79ZdrO0YfnMKF2g5a2TT8MWtp2Uw1a2jacmYBZWB23N+ZoO0cf6i/bR476oefqvE/APQisy/xMy3jSGwJmx/1Ly0OC+stqe/3QZ8PxbKt0DUAe3u80iYDZcf/7sHQF61F/WW2vH/psOZ/slq4ByMP7nSYRMAEAAEhCwCzsuxpXiOpsO0cf6i/bR476AQDoFgGzsG8/32hl2zn6UH/ZPnLUDwBAtwiYhX291862c/Sh/rJ95KgfAIBuETAL++bTjVpuRfzu4artuqn/ydQPAEAfCZgN8I8P0l/I19Fmzr7UX7avnPUDANAdAmYDfPv5Rnz1SboL+q8+2cj6/Jz6H6V+AAD6SsBsiC8/3Iiv/7b+Rf3Xf9uILz/MHw7Uv6J+AAD6TMBskH98sN5K1FefbBS9tVH96gcAoN+eLV0Aj/ryw434Zi/ix2/sxzMXT/dnvnu4ChdNuK1R/WW1vX4AANpNwGygbz/fiPv/uRE/eHk/LmxGPPfC42Hhu4er/+7rvebt9qn+stpePwDQHsPxbCsiYjmf7JatpJmq8fliOZ98UbqWXATMBvvm04345tOIiHYGAPWX1fb6Od5wPLsWEdciYhARm0f+9V5E7ETE9nI+2a6h762IuHLo5/mIePOUf/xeRHwRER8d/LgoISXzsx2G49l+pq5q/X3YR0/7/BmOZxHGO4bj2Sj+OT6XDv3ziH+Oz2I5n+xkLy6Tjf39XO/vely+E+3+CwC1uf9299L1cDwbRMQiHg+VT7MXEaN1PsiqC/ZBPOEDM5EHUV2QRMROXy7o677AXs4nnZv/T2J+1iNjAMxp7d+H59WF93uJz582qYLlrTj976B7EXFzOZ98VFtRhQiYQGd1LWAOx7NbEXHjnH/89nI+uXmGvp6PiFH189o5+zyvj2N1EbPo8i1FXbjgLMX8rF9HA+aBM/0+TKHt7/ecnz9tU/0+2o7T3ylx1G+X88mthCUVZxdZgBYYjmeLOP+He0TEjaqNk/oZVP/d/0TEu5H/4j2qPt+NiP8ZjmeL6ltzMD9J5VS/D1nJ9fnTRlW43Inzh8uIiHe7Nj4CJkDDVd8cX0/Q1PWqrSf1MRiOZzsR8X6ivlK5HhHvD8ezHRfy/WV+UoOn/j7kn3J8/rTcdqT5out6dYttJwiYAA1WXbSu883xUTcOXwgfuXBf5xvYur0ZLuR7x/ykZje8Xk9X9+dP2w3Hs2mk/b1062BH3raziyxAsy3qaHM4nl2J1WYETVoNOo2DC/m7sdocobPPwPVZdduZ+UkOi4jYKlxDUy1qanOrhnazqn5HpX6u9FJETGP1bHmrWcEEaKhqK/jT7tZ3FpuxeoatbRfvh12PiN1qjOiQ6jXdDfOTPDa9To+r8/OnI+N9M9LvWB2xulV2q4Z2sxIwAZqrCx/CdboUEcvheLZdfZtMiw3Hs+eH49l2RCyjngu33MzP9vC79nF1jkkXdpQd1dh26+ejgAnQXIPSBbTEv0XER9Vtv7RQ9dp9FKvXsmvMz+YblC6ggQY1tv1mm1fpqs146ljdPSBgAlCbOj/AumYzIv7SpV34+qJ6zf4S3Z7v5mezdXnunVfdYzKtuf06jWpuf6vm9msnYALQJe91dCv8Tqpeq/dK15GR+UnjZVpdvNbGW8erOxHq3tG69V94CJgAdE1nD/XukgSHt7eV+QmrZ5RHpYs4hy48P1o7AROALrruIr65qtemzbvErsv8pLGW88lupq5aFdaqFdccv7f2MvRRKwETgK5yEd9AwuX3zM/maP0FfQ1yjEnbjizJFYh3M/VTGwETgC5zEd8gwuVjzM9m2CldQAPtZOqnTauYo0z9bGfqpzYCJgBdd304nrXpIqaTqtdAuHyc+Vle6y/oa5BrTFpxZEmGo0kOa/18FDAB6IN3W3YrVqdUY/9u6ToazPwsZ285n7T+gj61akxy3To8zdTPOkaZ+vlDxmdgayNgAtAXC4fd51eN+aJ0HS1gfpYxKl1Ag+U6UqfRR5ZkOprkQCeOMRIwAeiLSyHolLCI1dhzPPMzv9vL+WSndBENtoiIBxn6afqRJbluYd/rynwUMAHok9ccdJ9PNdavla6jRczPfO4u5xPPvh5jOZ98EfmeB2zka5HxaJKIdtwqfCoCJgB9c2M4ng1KF9F11RjfKF1HC5mf9bu9nE9GpYtoiWmmfpp6ZEmu4PsgOrC5zwEBE4A+WjT5mZ+2q8Z2UbqOFjM/67EXEW9ZuTy9asOZe5m6a+LrMsrUz6JaMe4EAROAPtqMZl7MdMXNyLelfxeZn+nsRcTdiBgu55Otrjzjllmu27YbdWRJ5qNJOnVr/LOlC+DpfvDyflzYjHjuhf145uKj/+67hxHffr4RX+9FfPPpRpkCT/DLzYhfvBzx+osRLx2p/7OHEX/+e8SfPo34Y65NsM/I+MOp7cXqUO6Pqp8nuVL9DKI5weM/huPZogtbwjdJdYH4H6XrOMT8bKDlfNLMD08es5xPtofj2V7keW9Mozkb/owy9dOJo0kOEzAb6LkX9uPHbzweag575mLEhZ/sx4WfRHz3cD/+8cFGfPt5M35Xv/5ixO/feDzUHPbSxYhf/XT189nDiN98sAo8TWD84VT2YvWN6/YpPxh3Dv5HFUCuRTNWuabRnIuZrpiWLiDMT0jtVuQ5y/bacDx7vvTtoo4mWY+A2TA/urofP3xl/0x/5pmLEZd+vh9ffRLx5YdlQ87vrkaMXz3bn3npYsR//Txi/teIf/+wnrpOy/jXUxedshcR0+V8sjhvA9UF/62IuFXdgjSNchfy14fj2bRr3x6XUoWzXDsuPon5CfVYxOq9UPeRQwdHlpQOXY4mWYNnMBvkx2+cPdwc9sNXVitvpfz+jbOHm8PGr67aKMX4lx1/Gu9BRPy2eoZpkarR5XyyWM4nWxHx28hz3tqTTAv120XTQv2an1CjPh1Z4miS9QmYDfGjq/tx4Sfrh5MLP9mPH13NH3J+d3V1u+W6fvXTVVu5Gf+VUuNP492LiK3lfFLbN8pV21uRb7fCw643aWOJtiq4eml+Qh7TTP2UPrLE0SRrEjAb4LkX1ls5O+qHr+zHcy/kCzmvv7jeytlR41dXbeZi/B+Ve/xpvNvL+WSQ43mY5XzyxXI+GUTE7br7eoJpgT67ZlqgT/MTMunRkSWjTP106miSwwTMBqjjtsqct2rWcVtlzls1jX+eNmmlX5c4L67q89eZu73u3MHzy3xL2QHzE/Lr9JEljiZJQ8As7AcvH79b6Xk9c3HVdt1+uXn8bqXn9dLFVdt1M/5Plmv8abRfp3yW7ayqvnNfxI8y99clo8z9mZ9QwHI+2Y7VZlo5TDP1c9goUz+dO5rkMAGzsAs1XsTX2faBX7zczrYPGP8ybdN4t0tevB+oash5O+IoY19dM8rYl/kJZeVaebuWc+Xe0STpCJiF1fmsXo7nAOt8Vi/Hc4DGv0zbNNq9ErcdPk1VS65nfl6rLjA4g2rMXsvUnfkJ5S0iz67KB0eW5OJokkQEzMLquD0zR9sH6rg9M0fbB4x/mbZprAexOmC+aa5FviMimvj3b7pcY2Z+NvPvT8908cgSR5OkJWB23L8ICUUZf1pm1MQd7aqaRpm6cwF/drnGzPw0P2mOaaZ+ch1Z4miShATMjvvfh6Ur6DfjT4vcqzZvaKSqthy3Ir7mzMHTq8Yqx+2x5ueK+UkjdPDIklGGPiI6fDTJYQImABFlzxw7rVw1DjL10wWDTP2Yn/80yNQPnKQTR5Y4miQ9AbOw72pc4aqz7a4w/hARq9Whj0oXcZKqxhzfmA8y9NEVgwx9mJ+PGmToA07UoSNLRjW2fVinjyY5TMAs7NvPN1rZdlcYf4iIdm04MM3QxyBDH10xyNDHNEMfqUwz9DHI0AecVquPLHE0ST0EzMK+rvF7nzrb7grjD+3aLr2qte5312bOs9faqhqjum8rMz8fZ37SJIto95EljiapgYBZ2DefbtRyK+V3D1dtczzjD63czS5Hzc4bPFmOMTI/n8z8pBHafGSJo0nqI2A2wD8+SB9E6mizq4w/PbcoXcA5LDL04QL+ZDnGaJGhj9QWGfowP2mSaaZ+Uh9Z4miSmgiYDfDt5xvx1SfpAslXn2x4/u8MjD899qANm6ccVdVc9y1ZWzW33wVbNbdvfj7dVs3tw6m1+MiSUcK2jtOLo0kOEzAb4ssPN+Lrv60fSr7+20Z8+aFwc1bGn55q3cX7IXXXboXoZHWPkfn5dOYnTdOqI0scTVIvAbNB/vHBeitpX32y4dbMNRh/emindAFr2CldALXbKV3AGnZKFwA5tfDIklGCNk6jN0eTHCZgNsyXH27Eg/8+28Yz3z2MePDfVs5SMP70zG7pAtawW3P7ubatb7O6x2i35vbrtFtz++YnTdSKI0scTVK/Z0sXwOO+/Xwj7v/nRvzg5f24sBnx3Av78czFR/+b7x6u/ruv9+xWmprxp0d2Sxewht3SBVC73dIFrGG3dAFQwCJWq4uXau7n4MiS84Y3R5PUTMBssG8+3YhvPo2IEGBKMP4AAKeznE++GI5n25Hn6I+bcY6A6WiSPNwiCwAApDDN1M95jyxxNEkGAiZAf9mlkyZr82vc5trh3FpwZMkodRFP0bujSQ4TMAF6qs0ffm2undNp82vc5tohgUYeWeJoknwETAAAIIkGH1kyqqmGo3p5NMlhAiYAAJBSo44scTRJXgImAACQ0iJWG93U7eDIkpM4miQjARMAAEimeg451y6qx4ZHR5PkJ2ACAACpTTP1c9KRJY4myUzABAAAkmrQkSWjTDX0+miSwwRMAACgDkWPLHE0SRkCJgAAkFwDjiwZZeq790eTHCZgAgAAdSlyZImjScoRMAEAgLososyRJY4mKUTABAAAalHiyBJHk5QlYAIAAHWaZurn4MgSR5MUJGACAAC1KXBkyShTX44meQIBEwAAqFu2I0vC0SRFCZgAAECtMh9ZkoOjSZ5CwAQAAHLo0opfl/4uSQmYAABADovIc2RJ3RxNcgwBE6CnDh9I3TZtrp3TafNr3ObaoU6Zjyyp07R0AU0mYAL015XSBayhzbVzOm1+jdtcO9RtWrqANTma5AQCJgAAkEXmI0vq4GiSEzxbugCe7pebEb94OeL1FyNeuvjov/vsYcSf/x7xp08j/til/bgaxPgDQD2G49nAM2y9ditWx4m0kc19TiBgNtDrL0b8/o3HQ81hL12M+NVPVz+fPYz4zQerwMP6jD89slW6gDVslS6A2m2VLmANW6ULgCZbzifbw/FsL/KdV5mKo0lOwS2yDfO7qxH/9fPjw81RL11c/ZnfXa2vrr4w/vTMVukC1rBVc/ttvn0rl7rHaKvm9uu0VXP75idd0MaVwDbWnJ2A2SC/fyNi/Or5//z41VUbnI/xp4cGpQtYw6B0AdRuULqANQxKF9ACNkJiEe06ssTRJKckYDbE766ubrdc169+aiXtPIw/PdXmC7y6a/+o5va7oO4xMj+frgvzc6t0AZTVwiNLpqULaAsBswFef3G9lbOjxq+u2uR0jD89dmk4nrXuIr6q+VLN3ezW3H4X7Nbcvvn5dLs1tx9R/224g5rbpx2mpQs4JUeTnIGA2QB13FbpVs3TM/703Kh0AecwytBHF1aI6pZjjEYZ+khtlKGPLszP14bj2fOli6CsFh1Z4miSMxAwC/vl5tk2lDmtly6u2uZ4xh/iWukCziFHzV24gK9bjjEyP58sx9jvZOijja8v6bVh45w21NgYAmZhv3i5nW13hfGH2ByOZ4PSRZxWVWvdX9/s+ab6ZNUY1X0SsPn5uFzzczdDH6MMfdBwy/lkO+r/XbIOR5OckYBZWJ3P6nkO8GTGHyKiPc/AROSpdSdDH12xk6GPaYY+Uplm6GMnQx8ReQLmm8PxbCtDPzRfk1cIm1xbIwmYhdVxe2aOtrvC+ENErC7yGr+ZSlXjmxm62snQR1fsZOjD/HzUToY+IuNxDNNM/dBsi2jmkSWOJjkHAROAiHZ8Q5urxp1M/XTBTqZ+zM9/2snUT0SezVeuW8WkwUeWTEsX0EYCJgARq1Wixm64UdWWY3XoY8/anF41Vh9n6Mr8XMk9P3cy9bPI1A/NNi1dwBGOJjknAROAA4smHhtQ1bTI1J2LibPLNWbmZ/75mau/N4fj2ShTXzRUA48scTTJOQmYABy4FM0MWNtR/8H1h/vibHKNmfmZ+e+/nE8+inzPxd1qw7O21K5Jt8M3qZZWETABOOzN4XjWmA/VqpYctx5GrG4/dP7lGVVjluM22Qjzs8T8zPkFQiNXqcmnQUeWOJpkDQImAEfdaMLtalUNNzJ2ucjYV9csMvZlfuaVs9/XImJHyOy9JnyJ1IQaWkvABOBJ3it5EV/1/V7mbheZ++uSReb+zM9MqiMacq4oCZksouyRJY4mWZOACcDTvFfidsSqz9wX73dt5nB+1djdzdyt+ZlP7nE+CJmeyeyhBhxZMi3YdycImAAc58ZwPMuymjAcz54fjmc7kfe2wwPTAn12zbRAn+ZnHovIv6J0EDJHmfulGaaF+nU0SQICJgAneTMidofj2c26Oqja3o18G6YcdtdmDuurxjD3KmaE+Vm7gitKl2K1Ur0zHM+2CvRPIQWPLHE0SQICJgCncSki3h2OZ7spVxSG49loOJ7tRsS7ke+oh6Omhfrtommhfs3P+k0L9v1mRPy/4Xi2EDR7pcRGOzb3SeDZ0gUA0CqbsVpRmMbqg3j7rKsr1QXitYi4WbVXUvHVoS5Zzie7w/HsbkRcL1SC+VmTBry2UfV9fTie3YvVbbvbVpu6azmfbA/Hs73I9z50NEkiAiYA57EZq1Wdd6sLgJ2I+Kj6eZIr1c8gyl+0HzYtXUAHTaNsCIkwP+tyM1bhu9Rq7oE3q5/3huPZx7F6fXfj0OtrF9DOuBWr93KuvkhAwARgXZtRrSyULuSM3vFtdXrVStc7EfEfpWupmJ+JLOeTL6pddJvy2kasNgN67eg/HI5nB//z4AuG7eV8YvOW9sm1k7CjSRLyDCYAfbQXvq2u063Ie3Zi1zR2fi7nk2lEfFy6jjM4+IJhWT2jOyhcD6dU7Q6d64uhaaZ+ekHABKCPRp7dqk81tqPSdbRY0+dnbTv21mwzIt4vcX4q55JrnjmaJDEBE4C+ue1WqPpVY3y7dB0t1Pj5WdX3Tuk61nBjOJ4tShfBiUaZ+nE0SWICJgB98vFyPmnr6kvrVGPdptspS2vN/GzhrbJHXbeS2VzVcUO5NtwyDxITMAHoiwfhts0SRrEae47Xxvl5Ldr92t7wTGZjjTL142iSGgiYAPTFaDmfPO2YCmpSjfmodB0t0Lr5WV2YXytdx5oWpQvgUcPx7EqsjqHJweplDQRMAPrgt44oKKca+9+WrqPBWjs/q+cxf126jjVsDseztofkrsl1m7ijSWoiYALQdXeX84lvqQurXoO7petooNbPz+V8soh2b+gkYDaEo0m6QcAEoMvuLueTUekiWKleCyHznzozP6vNidr62g5KF8D3HE3SAQImAF3VmYv3LhEyv9e5+dni1zbXbqUco1q9zBUwHU1SIwETgC7q3MV7l7Q4iKTS2flZ/b3afLss5dyMiEuZ+mr1belNJ2AC0DW3u3rx3iU9DiKdn5/V7bJt3viHzIbj2VbkW710NEnNBEwAuuTXbTmonl4Gkd7Mz2rjn7ei3edkks8irF52hoAJQBfsRcTPqovatthradtJVa/Zz6JFNZ9DG+fn2qojIK5ExMeFSzlJjrnn/f4Uw/HsZuQ799LRJBkImAC03R8i4krbDqmPiJ2Wtp1c9dpdidVr2TVtnZ9JLOeT3eV8ciUi3ildyzF2Wt5HnW3XqjqD9N2MXU4z9tVbAiYAbfUgIobL+eRaS3cDrHOL/NZtv7+cT75YzifXImIY3bitsu3zM6nlfDKN1S2zTVzNzPF+8X4/YjieXYnVrbG5OJokEwEToL/avIvn3YjYWs4nrb1YqGqv49a2vQ6My1aYn52znE92Dq1mNuVLhCzvF+/3Rw3Hs0GsVl5zPXcZ4WiSbARMgJ6qdrL8WUTcK1zKWdyLiLeW88moIxcKo5a0mVW1mjmK1YqX+dkx1WrmVjTjS4RRy/uqo81aDcezUUS8H3nDZYTNfbIRMAF6bDmffLScTwbR/Av5gwv3QZc2aKj+LimP6rjdtfExP7vp0JcI/xqroFliRTPr+6Xv7/fhePb8cDzbjoj3CnTvaJKMBEwADl/I/yyasapw4G50/MK9OrYixZjf7eoRGEeCpvnZIdUmQKNYrWj+NvLtiFrk/dLX93u1arkbEf9WqASrlxlt7O/vl65hLZfvRKv/Avffrrf9y3fqbV/9x1N/Wfffjo3SNaxjOJ7V+vttOZ88dXyG49nzEXEtVgdfv1ZnHU/wcaw2fujV8zLD8exWRNw45x+/3aaLzXVV83NU/ZifHVM9nzeK1e+gOm6jLP5+6cv7vQqWJT5HDrtXfUFFJgJmYW0PCOo/nvrLEjCPd1zAPFLHVkQMYnWxN4j0F3wPYrXZw3ZE7PT5NqbqwnoREZun/CN7ETHq8+qZ+dlt1U6jB6/tumclNur90tX3e/WajWL1up3271ant5o+Zl0jYBbW9oCg/uOpvywB83inDZhHVRf0Vw79PF/939Nc2N+LiC8i4qODHxfsj6vOhju4qD56gbYXVeBp4+6RdXvK/DxtMDE/G64KZVvVz6D6x8e9vo1/v7Tx/V69z7aq//fgM+BK1PMlzzqsXhYgYBbW9oCg/uOpvywB83jnDZgA9EsVKG/GKkCWvN31rP7Vl0T5PVu6AAAAoHmq551vRcT10rWcwzvCZRkCJgAA8IjqWcqdaNYtr6e1F3aOLcYxJQAAwPeq50L/Eu0MlxER1+zyXI6ACQAARMT3K5eL0nWs4Z3lfPJR6SL6TMAEAAAOLKK9K5f3lvPJtHQRfSdgAgAAMRzPRtGuXWIP24vVcS8UJmACAAARq6NI2uhBeO6yMQRMAADouerZyzauXj6IiIHnLptDwAQAAAalCzinkXDZLAImAADwfOkCzuhBRPx6OZ9sly6ERz1bugAAAKC4K6ULOAO3xTaYFUwAAKAtG+QIlw0nYAIAALulCziFj422lh0AAAU4SURBVCNiS7hsNrfIFvbZw4iXLtbXdt3Uf3zbdWt7/ZxoLyI2a2wbAA7sli7gBLeX80lbj1HpFSuYhf357+1sO0cf6i/bR476OdFOS9sGoH12ShfwFA8i4i3hsj0EzML+9Gk7287Rh/rL9pGjfk5U5854dt0D4HvL+WQ3VregNsndWN0Su1O6EE5PwCzsj3v13Ir42cNV23VT/5OpnxSqrdfreCX2bOsOwBPcKl1A5eNYrVqOlvNJWzYfoiJgNsBvPmhHmzn7Un/ZvnLWz4lGLWkTgJZbzieLiLhXsIS9WJ1tecWqZXsJmA3w579HzP+arr35X/M+P6f+R6mflKoP2NsJm7ztQxuAY4xi9dxjTgfBcqsKubTYxv7+fuka1nL5TrT7L3DI79+I+NVP12vj//zfcqtP6ld/09x/OzZK15DKcDxbRMT1NZu5u5xPRmsXA0CnDcezK7Ha9OdSzV39ISIWHtvoFgGzYX53NWL86vn+7PyvEf/+Ydp6zkr9aes5q7bXn1qXAmZExHA8uxURN875x23vDsCpVSFzO9Ifl/VxRCwiYrvaWIiOETAb6PUXV6tRpz3f8LOHq1WnptzWqP6y2l5/Sl0LmBERw/FsEKsP5tN+4O9FxMhtsQCc1XA8ez4ipnH+LzcjVp9DOwc/QmX3CZgN9svNiF+8vAoMR8PCZw9XgeBPnzZ3t0/1l9X2+lPoYsA8MBzPrkXEtYgYxONh8+DDfNttRwCsqwqao1h97rz5lP9sLyJ2D/3sRMSuQNk/AibQWV0OmAAATWQXWQAAAJIQMAEAAEhCwAQAACAJARMAAIAkBEwAAACSEDABAABIQsAEAAAgCQETAACAJARMAAAAkhAwAQAASELABAAAIAkBEwAAgCQETAAAAJIQMAEAAEhCwAQAACAJARMAAIAkBEwAAACSEDABAABIQsAEAAAgCQETAACAJARMAAAAkhAwAQAASELABAAAIAkBEwAAgCQETAAAAJIQMAEAAEhCwAQAACAJARMAAIAkBEwAAACSEDABAABIQsAEAAAgCQETAACAJARMAAAAkhAwAQAASELABAAAIAkBEwAAgCQETAAAAJLoQsDcK10A0Eh+NwAAZNaFgLlTugCgkXZKFwAA0DddCJjbpQsAGsnvBgCAzDb29/dL17C2y3diNyI2S9cBNMbe/bdjq3QRAAB904UVzIiIUekCgEYZlS4AAKCPOhEw778dOxFxu3QdQCPcrn4nAACQWSdukT1w+U4sIuJ66TqAYu7ef9vqJQBAKZ1YwTxQXVhayYR+ui1cAgCU1akVzAOX78QgIhZh4x/og72IGLktFgCgvE4GzAOX78S1iLgWEYMQNqFL9mJ1zuX2/bcdRwIA0BSdDpgAAADk06lnMAEAAChHwAQAACAJARMAAIAkBEwAAACSEDABAABIQsAEAAAgCQETAACAJARMAAAAkhAwAQAASELABAAAIAkBEwAAgCQETAAAAJIQMAEAAEhCwAQAACAJARMAAIAkBEwAAACSEDABAABIQsAEAAAgCQETAACAJARMAAAAkhAwAQAASELABAAAIAkBEwAAgCQETAAAAJIQMAEAAEhCwAQAACAJARMAAIAkBEwAAACSEDABAABIQsAEAAAgCQETAACAJARMAAAAkhAwAQAASELABAAAIAkBEwAAgCQETAAAAJIQMAEAAEhCwAQAACAJARMAAIAkBEwAAACSEDABAABIQsAEAAAgCQETAACAJARMAAAAkhAwAQAASELABAAAIAkBEwAAgCT+P0UvI6jvDcTmAAAAAElFTkSuQmCC;" parent="1" vertex="1">
          <mxGeometry x="841.39" y="235.97" width="327.23" height="128.05" as="geometry" />
        </mxCell>
      </root>
    </mxGraphModel>
  </diagram>
</mxfile>
